<?xml version="1.0" encoding="UTF-8" standalone="no"?>
<svg
   xmlns:dc="http://purl.org/dc/elements/1.1/"
   xmlns:cc="http://creativecommons.org/ns#"
   xmlns:rdf="http://www.w3.org/1999/02/22-rdf-syntax-ns#"
   xmlns:svg="http://www.w3.org/2000/svg"
   xmlns="http://www.w3.org/2000/svg"
   id="svg83"
   version="1.1"
   viewBox="0 0 235.05933 37.593372"
   height="37.593372mm"
   width="235.05933mm">
  <defs
     id="defs77" />
  <metadata
     id="metadata80">
    <rdf:RDF>
      <cc:Work
         rdf:about="">
        <dc:format>image/svg+xml</dc:format>
        <dc:type
           rdf:resource="http://purl.org/dc/dcmitype/StillImage" />
        <dc:title></dc:title>
      </cc:Work>
    </rdf:RDF>
  </metadata>
  <g
     transform="translate(8.9573486,-136.71004)"
     id="layer1">
    <rect
       y="135.90002"
       x="-38.259964"
       height="29.929974"
       width="247.79861"
       id="rect1105"
       style="color:#000000;clip-rule:nonzero;display:inline;overflow:visible;visibility:visible;opacity:1;isolation:auto;mix-blend-mode:normal;color-interpolation:sRGB;color-interpolation-filters:linearRGB;solid-color:#000000;solid-opacity:1;vector-effect:none;fill:#ffffff;fill-opacity:0;fill-rule:nonzero;stroke:none;stroke-width:0.29167664;stroke-linecap:butt;stroke-linejoin:miter;stroke-miterlimit:4;stroke-dasharray:none;stroke-dashoffset:0;stroke-opacity:1;color-rendering:auto;image-rendering:auto;shape-rendering:auto;text-rendering:auto;enable-background:accumulate" />
    <g
       id="text4136-7-3-7-9-6"
       style="font-style:normal;font-weight:normal;font-size:6.74699163px;line-height:0%;font-family:sans-serif;letter-spacing:0px;word-spacing:0px;fill:#ff9955;fill-opacity:1;stroke:none;stroke-width:0.5622493px;stroke-linecap:butt;stroke-linejoin:miter;stroke-opacity:1"
       aria-label="ERIC">
      <path
         id="path842"
         style="font-style:italic;font-variant:normal;font-weight:500;font-stretch:normal;font-size:42.52009964px;line-height:125%;font-family:'Exo 2';-inkscape-font-specification:'Exo 2, Medium Italic';text-align:start;writing-mode:lr-tb;text-anchor:start;fill:#ff9955;fill-opacity:1;stroke-width:0.5622493px"
         d="m 150.37322,142.9252 h 11.56547 l 0.55276,-3.31657 c -3.82681,-0.34016 -8.33394,-0.34016 -12.62847,-0.34016 -3.82681,0 -5.99533,1.95593 -6.46305,5.18746 l -2.50869,18.15608 c -0.51024,3.78429 1.40317,6.16541 6.03786,6.16541 3.82681,0 8.12134,0 11.77806,-0.34016 l 0.085,-3.31657 h -11.35286 c -1.87089,0 -2.46617,-0.68032 -2.21105,-2.63624 l 1.02048,-7.56858 h 12.41587 l 0.4252,-3.27405 H 146.7165 l 0.80788,-5.95281 c 0.25512,-2.04097 1.02048,-2.76381 2.84884,-2.76381 z" />
      <path
         id="path844"
         style="font-style:italic;font-variant:normal;font-weight:500;font-stretch:normal;font-size:42.52009964px;line-height:125%;font-family:'Exo 2';-inkscape-font-specification:'Exo 2, Medium Italic';text-align:start;writing-mode:lr-tb;text-anchor:start;fill:#ff9955;fill-opacity:1;stroke-width:0.5622493px"
         d="m 187.00628,147.64493 c 0.89293,-6.71817 -2.63624,-8.6741 -8.6741,-8.6741 -4.29453,0 -6.84573,0.0425 -10.07726,0.38268 l -4.12445,29.33887 h 4.16697 l 1.7008,-12.11823 c 1.57325,0.0425 3.57169,0.0425 6.25046,0.0425 1.82836,0 2.7638,0.72285 3.14649,2.84885 l 1.74332,9.22686 h 4.33705 l -1.87088,-9.18434 c -0.46773,-2.5512 -1.53073,-3.82681 -3.18901,-4.29453 l 0.0425,-0.25512 c 4.16697,-0.51024 5.95281,-3.01893 6.54809,-7.31346 z m -10.63002,5.31502 h -5.86778 l 1.44569,-10.28987 c 1.65828,0 3.78429,-0.0425 6.25045,-0.0425 3.99689,0 5.05989,1.14804 4.50713,4.93233 -0.59528,4.12445 -2.25356,5.35754 -6.33549,5.40006 z" />
      <path
         id="path846"
         style="font-style:italic;font-variant:normal;font-weight:500;font-stretch:normal;font-size:42.52009964px;line-height:125%;font-family:'Exo 2';-inkscape-font-specification:'Exo 2, Medium Italic';text-align:start;writing-mode:lr-tb;text-anchor:start;fill:#ff9955;fill-opacity:1;stroke-width:0.5622493px"
         d="m 198.95842,139.35351 h -4.29453 l -4.12445,29.33887 h 4.29453 z" />
      <path
         id="path848"
         style="font-style:italic;font-variant:normal;font-weight:500;font-stretch:normal;font-size:42.52009964px;line-height:125%;font-family:'Exo 2';-inkscape-font-specification:'Exo 2, Medium Italic';text-align:start;writing-mode:lr-tb;text-anchor:start;fill:#ff9955;fill-opacity:1;stroke-width:0.5622493px"
         d="m 216.41624,138.84327 c -8.50402,0 -11.94815,3.91185 -13.47887,15.0096 -1.57324,10.71506 1.19056,15.34975 9.65206,15.34975 3.82681,0 6.16542,-0.25512 8.75914,-0.97796 l -0.2126,-3.27405 c -2.42364,0.34016 -4.67721,0.51025 -8.4615,0.46773 -5.22997,-0.0425 -6.54809,-2.67877 -5.31501,-11.22531 1.2756,-9.39694 3.57169,-11.56547 8.97174,-11.56547 3.31657,0 5.01737,0.085 7.52606,0.34016 l 0.68032,-3.23153 c -2.38113,-0.59528 -4.25201,-0.89292 -8.12134,-0.89292 z" />
    </g>
    <path
       d="m 13.642177,144.24065 c -1.553369,0 -2.683139,1.23561 -2.824096,3.03679 h 5.295668 c 0.07041,-1.97753 -0.918434,-3.03679 -2.471572,-3.03679 z m 7.590499,6.60169 H 10.782428 c 0.03539,2.32995 1.44694,3.67172 4.34211,3.67172 1.729747,0 3.530137,-0.35256 5.154084,-1.09438 l 0.494804,4.05907 c -1.976768,0.8126 -4.342243,1.20213 -6.496513,1.20213 -5.754059,0 -8.931772,-2.79066 -8.931772,-8.96769 0,-5.40213 3.001136,-9.39102 8.437596,-9.39102 5.295702,0 7.625656,3.56556 7.625656,8.15443 0,0.74153 -0.07041,1.51874 -0.175717,2.36534"
       style="fill:#ffffff;fill-opacity:1;fill-rule:nonzero;stroke:none;stroke-width:0.33072916;stroke-opacity:1"
       id="path14" />
    <path
       d="m 34.258643,150.80718 c -3.177315,0 -4.800534,0.67052 -4.800534,2.2943 0,0.91715 0.635662,1.55277 1.765432,1.55277 1.800159,0 3.035102,-1.65897 3.035102,-3.35316 v -0.49417 z m 0.494771,7.51919 c 0,-0.88238 0,-1.80016 0.14056,-2.68254 h -0.03539 c -0.846998,1.83518 -2.929268,3.03742 -5.365089,3.03742 -3.35399,0 -5.119522,-1.9774 -5.119522,-4.80256 0,-4.44791 4.30659,-6.35426 9.884668,-6.42464 v -0.88239 c 0,-1.51877 -0.670388,-2.18916 -2.859154,-2.18916 -0.741164,0 -1.412544,0.10583 -1.976768,0.24742 -0.07144,0.56455 -0.176609,1.2706 -0.3175,1.94174 h -3.424502 v -5.36687 c 1.906125,-0.56456 4.059171,-0.91777 6.178153,-0.91777 6.106584,0 7.801571,2.25957 7.801571,6.28464 v 7.62487 c 0.846997,0.14158 1.94138,0.28254 2.823765,0.35318 v 3.49515 c -2.294599,0.24675 -5.189471,0.38771 -7.730794,0.28191"
       style="fill:#ffffff;fill-opacity:1;fill-rule:nonzero;stroke:none;stroke-width:0.33072916;stroke-opacity:1"
       id="path16" />
    <path
       d="m 70.218164,144.59387 -4.129153,13.69748 h -5.931297 l -1.906985,-6.10764 c -0.387945,-1.27123 -0.705114,-2.57671 -1.023607,-4.20049 h -0.03506 c -0.352557,1.65893 -0.706107,2.96492 -1.164497,4.41252 l -1.730375,5.89561 h -5.824799 l -4.024313,-13.69748 c -0.565216,-0.0712 -1.129771,-0.14158 -1.659599,-0.28281 v -3.56489 h 8.613841 v 3.56489 c -0.423664,0.10584 -0.847328,0.17701 -1.341437,0.212 l 0.883047,3.24776 c 0.353218,1.34177 0.740502,2.68317 1.023606,4.09549 h 0.07045 c 0.317831,-1.90636 0.776221,-3.42447 1.235935,-4.90746 l 1.941049,-6.21268 h 4.73075 l 1.906323,6.21268 c 0.529828,1.72974 0.882386,3.17731 1.269669,4.90746 h 0.07144 c 0.248708,-1.37719 0.565216,-2.50633 0.883708,-3.74191 l 1.057011,-3.60134 c -0.457068,-0.0347 -0.916782,-0.1058 -1.339453,-0.212 v -3.56489 h 8.083351 v 3.56489 c -0.529497,0.14162 -1.093721,0.212 -1.659599,0.28281"
       style="fill:#ffffff;fill-opacity:1;fill-rule:nonzero;stroke:none;stroke-width:0.33072916;stroke-opacity:1"
       id="path18" />
    <path
       d="m 82.610586,150.80718 c -3.178638,0 -4.800864,0.67052 -4.800864,2.2943 0,0.91715 0.635,1.55277 1.764771,1.55277 1.799497,0 3.036093,-1.65897 3.036093,-3.35316 v -0.49417 z m 0.493448,7.51919 c 0,-0.88238 0,-1.80016 0.142214,-2.68254 h -0.03506 c -0.847989,1.83518 -2.931252,3.03742 -5.366742,3.03742 -3.354255,0 -5.119026,-1.9774 -5.119026,-4.80256 0,-4.44791 4.307417,-6.35426 9.885164,-6.42464 v -0.88239 c 0,-1.51877 -0.67138,-2.18916 -2.859153,-2.18916 -0.742157,0 -1.413868,0.10583 -1.976438,0.24742 -0.07111,0.56455 -0.177601,1.2706 -0.319815,1.94174 H 74.03147 v -5.36687 c 1.905992,-0.56456 4.060031,-0.91777 6.17769,-0.91777 6.107245,0 7.802893,2.25957 7.802893,6.28464 v 7.62487 c 0.845675,0.14158 1.94105,0.28254 2.823435,0.35318 v 3.49515 c -2.29493,0.24675 -5.189141,0.38771 -7.731456,0.28191"
       style="fill:#ffffff;fill-opacity:1;fill-rule:nonzero;stroke:none;stroke-width:0.33072916;stroke-opacity:1"
       id="path20" />
    <path
       d="m 100.1604,144.20553 c -1.729715,0 -2.788709,1.02397 -2.788709,2.54132 0,1.58919 0.989211,2.57734 2.823769,2.57734 1.65993,0 2.75431,-0.95276 2.75431,-2.54195 0,-1.55274 -0.98987,-2.57671 -2.78937,-2.57671 z m 1.6887,14.943 h -2.789368 c -0.211336,0 -0.530489,0 -0.706106,-0.0348 -0.741495,0.49481 -1.227998,1.6596 -1.26537,2.40116 -0.07871,1.57692 0.414734,3.43598 3.162764,3.43598 2.50759,0 3.85696,-2.66005 3.85696,-4.03724 0,-0.95214 -0.63434,-1.76474 -2.25888,-1.76474 z m -2.158998,9.84256 c -4.765146,0 -7.840596,-3.11285 -7.840596,-6.5726 0,-1.65828 1.214437,-3.91514 2.556867,-4.58692 -1.023938,-0.49275 -1.694987,-1.48233 -1.694987,-2.71754 0,-1.41155 0.917773,-2.71829 2.118651,-3.21247 -1.588492,-0.84696 -2.613422,-2.54195 -2.613422,-4.83612 0,-3.67251 2.613422,-6.74327 8.121385,-6.74327 1.23461,0 2.25822,0.17621 3.28216,0.42363 h 5.89458 v 4.23628 h -2.01215 c 0.35454,0.35259 0.52982,0.91777 0.52982,1.58919 0,3.88272 -2.64748,6.35363 -7.76585,6.35363 -0.353546,0 -0.811937,-0.0348 -1.200875,-0.0704 -0.459052,0.17684 -0.635,0.56519 -0.635,0.88302 0,0.70614 0.494771,0.91711 2.506925,0.91711 h 2.39977 c 3.77792,0 5.98719,2.25686 5.98719,5.75171 0,3.84939 -3.56228,8.58476 -9.634799,8.58476"
       style="fill:#ffffff;fill-opacity:1;fill-rule:nonzero;stroke:none;stroke-width:0.33072916;stroke-opacity:1"
       id="path22" />
    <path
       d="m 115.51086,162.98036 c -1.56005,0 -2.82872,1.27007 -2.82872,2.83005 0,1.55946 1.26867,2.82941 2.82872,2.82941 1.55939,0 2.82906,-1.26995 2.82906,-2.82941 0,-1.55998 -1.26967,-2.83005 -2.82906,-2.83005 z m 1.97412,2.82979 c 0,1.08843 -0.88569,1.97404 -1.97412,1.97404 -1.08843,0 -1.97346,-0.88561 -1.97346,-1.97404 0,-1.08909 0.88503,-1.97416 1.97346,-1.97416 1.08843,0 1.97412,0.88507 1.97412,1.97416"
       style="fill:#ffffff;fill-opacity:1;fill-rule:nonzero;stroke:none;stroke-width:0.33072916;stroke-opacity:1"
       id="path24" />
    <path
       d="m 123.91105,162.98036 c -1.55939,0 -2.82905,1.27007 -2.82905,2.83005 0,1.55946 1.26966,2.82941 2.82905,2.82941 1.56138,0 2.83171,-1.26995 2.83171,-2.82941 0,-1.55998 -1.27033,-2.83005 -2.83171,-2.83005 z m 1.97644,2.82979 c 0,1.08843 -0.88668,1.97404 -1.97644,1.97404 -1.08843,0 -1.9728,-0.88561 -1.9728,-1.97404 0,-1.08909 0.88437,-1.97416 1.9728,-1.97416 1.08976,0 1.97644,0.88507 1.97644,1.97416"
       style="fill:#ffffff;fill-opacity:1;fill-rule:nonzero;stroke:none;stroke-width:0.33072916;stroke-opacity:1"
       id="path26" />
    <path
       d="m 132.10421,162.98036 c -1.55873,0 -2.82741,1.27007 -2.82741,2.83005 0,1.55946 1.26868,2.82941 2.82741,2.82941 1.56005,0 2.83005,-1.26995 2.83005,-2.82941 0,-1.55998 -1.27,-2.83005 -2.83005,-2.83005 z m 1.97412,2.82979 c 0,1.08843 -0.88569,1.97404 -1.97412,1.97404 -1.08777,0 -1.97214,-0.88561 -1.97214,-1.97404 0,-1.08909 0.88437,-1.97416 1.97214,-1.97416 1.08843,0 1.97412,0.88507 1.97412,1.97416"
       style="fill:#ffffff;fill-opacity:1;fill-rule:nonzero;stroke:none;stroke-width:0.33072916;stroke-opacity:1"
       id="path28" />
    <path
       d="m -2.806936,165.94541 c -0.397262,0 -1.891486,0 -1.891486,1.06661 0,0.33395 0.209421,0.9095 1.086498,0.9095 0.501389,0 0.877726,-0.20012 1.118794,-0.56586 0.218966,-0.35591 0.229185,-0.64725 0.250121,-1.37846 -0.176997,-0.0212 -0.32389,-0.0318 -0.563927,-0.0318 z m 0.678657,2.58098 c -0.07312,-0.26226 -0.09366,-0.51224 -0.09366,-0.78483 -0.47027,0.86816 -1.180693,0.95149 -1.619812,0.95149 -1.201609,0 -1.849501,-0.6789 -1.849501,-1.54706 0,-0.41678 0.145857,-1.08585 0.919067,-1.53633 0.564565,-0.31317 1.400946,-0.34432 1.818362,-0.34432 0.251407,0 0.408117,0.0103 0.71042,0.0311 0,-0.64724 0,-0.93031 -0.187196,-1.1595 -0.198438,-0.26095 -0.627093,-0.34571 -0.909505,-0.34571 -0.992188,0 -1.045154,0.68031 -1.055361,0.8887 h -0.982628 c 0.03114,-0.27117 0.06318,-0.63755 0.365481,-0.99219 0.397262,-0.43848 1.139336,-0.56455 1.693049,-0.56455 0.763002,0 1.578604,0.2412 1.860352,0.77334 0.167316,0.31313 0.177502,0.56379 0.177502,0.80357 l -0.04134,2.50964 c 0,0.0833 0.01035,0.78343 0.08348,1.31622 h -0.888702"
       style="fill:#ffffff;fill-opacity:1;fill-rule:nonzero;stroke:none;stroke-width:0.33072916;stroke-opacity:1"
       id="path30" />
    <path
       d="m 3.421356,163.92797 c -1.410891,0 -1.431429,1.48428 -1.431429,1.89276 0,0.37468 0.05219,1.13728 0.428261,1.67175 0.229857,0.33408 0.637712,0.51172 1.128481,0.51172 1.212487,0 1.452894,-0.95084 1.452894,-1.99601 0,-0.42889 0,-2.07996 -1.577942,-2.07996 z m 2.560439,-0.6479 c -0.01019,0.20928 -0.02054,0.6683 -0.02054,0.85718 v 6.40659 H 4.968439 v -2.6032 c -0.08397,0.12467 -0.188516,0.29404 -0.428923,0.45088 -0.438613,0.30153 -0.940627,0.33395 -1.18067,0.33395 -1.274597,0 -2.393156,-0.89929 -2.393156,-2.84362 0,-1.93348 1.097359,-2.68589 2.205302,-2.68589 1.065973,0 1.556742,0.58549 1.786599,0.95085 l 0.03178,-0.86674 h 0.992816"
       style="fill:#ffffff;fill-opacity:1;fill-rule:nonzero;stroke:none;stroke-width:0.33072916;stroke-opacity:1"
       id="path32" />
    <path
       d="m 9.545402,163.28007 v 3.37512 c 0,0.51353 0.115127,1.16078 1.117501,1.16078 0.491596,0 0.95164,-0.16666 1.233388,-0.58537 0.220299,-0.31314 0.220299,-0.72166 0.220299,-0.98392 v -2.96701 h 1.012957 v 4.2641 c 0,0.10515 0.0212,0.69065 0.03178,0.98262 h -1.02397 l -0.02054,-0.8993 c -0.188482,0.36613 -0.544016,0.95149 -1.673159,0.95149 -1.295135,0 -1.901692,-0.74207 -1.901692,-1.77687 v -3.52164 h 1.003829"
       style="fill:#ffffff;fill-opacity:1;fill-rule:nonzero;stroke:none;stroke-width:0.33072916;stroke-opacity:1"
       id="path34" />
    <path
       d="m 18.438412,165.94541 c -0.396478,0 -1.891474,0 -1.891474,1.06661 0,0.33395 0.209418,0.9095 1.086479,0.9095 0.502047,0 0.877722,-0.20012 1.118162,-0.56586 0.219604,-0.35591 0.229956,-0.64725 0.250759,-1.37846 -0.177635,-0.0212 -0.323751,-0.0318 -0.563926,-0.0318 z m 0.679681,2.58098 c -0.07378,-0.26226 -0.09432,-0.51224 -0.09432,-0.78483 -0.470264,0.86816 -1.18067,0.95149 -1.619283,0.95149 -1.202101,0 -1.85,-0.6789 -1.85,-1.54706 0,-0.41678 0.145852,-1.08585 0.919064,-1.53633 0.564554,-0.31317 1.400307,-0.34432 1.818349,-0.34432 0.250626,0 0.408119,0.0103 0.710439,0.0311 0,-0.64724 0,-0.93031 -0.187854,-1.1595 -0.198438,-0.26095 -0.627096,-0.34571 -0.908844,-0.34571 -0.992849,0 -1.04517,0.68031 -1.05539,0.8887 h -0.982629 c 0.03178,-0.27117 0.06254,-0.63755 0.365489,-0.99219 0.397933,-0.43848 1.139328,-0.56455 1.693068,-0.56455 0.763654,0 1.57781,0.2412 1.860352,0.77334 0.166654,0.31313 0.177502,0.56379 0.177502,0.80357 l -0.042,2.50964 c 0,0.0833 0.01035,0.78343 0.08334,1.31622 h -0.887677"
       style="fill:#ffffff;fill-opacity:1;fill-rule:nonzero;stroke:none;stroke-width:0.33072916;stroke-opacity:1"
       id="path36" />
    <path
       d="m 21.813536,163.25953 h 0.930308 v -1.09736 l 0.971649,-0.31313 v 1.41089 h 1.171112 v 0.72089 h -1.171112 v 3.14593 c 0,0.26095 0,0.7002 0.700848,0.7002 0.199066,0 0.386292,-0.0311 0.470264,-0.0523 v 0.763 c -0.177502,0.0318 -0.460705,0.0625 -0.815214,0.0625 -0.899286,0 -1.327547,-0.26161 -1.327547,-1.1175 v -3.50184 h -0.930043 v -0.72089"
       style="fill:#ffffff;fill-opacity:1;fill-rule:nonzero;stroke:none;stroke-width:0.33072916;stroke-opacity:1"
       id="path38" />
    <path
       d="m 26.997319,163.28007 h 0.9821 v 5.24632 h -0.9821 z m -0.104775,-2.27777 h 1.180802 v 1.07616 h -1.180802 v -1.07616"
       style="fill:#ffffff;fill-opacity:1;fill-rule:nonzero;stroke:none;stroke-width:0.33072916;stroke-opacity:1"
       id="path40" />
    <path
       d="m 33.769164,164.96279 c -0.02084,-0.24044 -0.09426,-1.0967 -1.045766,-1.0967 -1.357974,0 -1.357974,1.57691 -1.357974,1.97481 0,1.07679 0.260946,2.08062 1.306711,2.08062 0.835091,0 1.117865,-0.62774 1.13837,-1.14012 h 0.992518 c -0.06185,1.02462 -0.824508,1.88064 -2.120966,1.88064 -0.355203,0 -1.169789,-0.0725 -1.724091,-0.67838 -0.313201,-0.36613 -0.627063,-0.91972 -0.627063,-2.0062 0,-2.18516 1.337469,-2.8324 2.382573,-2.8324 0.34462,0 1.128779,0.0731 1.609328,0.64724 0.386954,0.45012 0.418373,0.87852 0.438547,1.17115 h -0.992187"
       style="fill:#ffffff;fill-opacity:1;fill-rule:nonzero;stroke:none;stroke-width:0.33072916;stroke-opacity:1"
       id="path42" />
    <path
       d="m 40.896047,164.34604 c 0,-0.3553 -0.02117,-0.72168 -0.05193,-1.06597 h 0.992849 l 0.02017,1.01339 c 0.188515,-0.73059 0.815909,-0.97116 1.254456,-1.03433 0.292695,-0.042 0.512299,-0.0316 0.679648,-0.021 v 0.96169 c -0.05259,-0.0208 -0.115755,-0.0311 -0.188846,-0.0413 -0.07276,-0.0116 -0.166357,-0.0116 -0.281451,-0.0116 -1.160198,0 -1.431396,0.69 -1.431396,1.58919 v 2.79039 h -0.993509 v -4.18075"
       style="fill:#ffffff;fill-opacity:1;fill-rule:nonzero;stroke:none;stroke-width:0.33072916;stroke-opacity:1"
       id="path44" />
    <path
       d="m 49.161961,165.39171 c 0.01058,-0.50205 -0.08301,-1.54643 -1.295466,-1.54643 -0.637646,0 -1.411222,0.3863 -1.431396,1.54643 z m -2.769195,0.68858 c -0.02117,1.08843 0.428625,1.89278 1.504817,1.89278 0.637315,0 1.149284,-0.33396 1.23362,-1.08637 h 0.982266 c -0.03142,0.25956 -0.07342,0.68846 -0.449461,1.09657 -0.230518,0.26162 -0.752409,0.69957 -1.807766,0.69957 -1.651661,0 -2.435489,-1.02332 -2.435489,-2.68524 0,-1.03481 0.208359,-1.89276 1.03452,-2.46562 0.501717,-0.35642 1.128779,-0.38754 1.431727,-0.38754 2.351484,0 2.299229,2.07995 2.278393,2.93585 h -3.772627"
       style="fill:#ffffff;fill-opacity:1;fill-rule:nonzero;stroke:none;stroke-width:0.33072916;stroke-opacity:1"
       id="path46" />
    <path
       d="m 53.059935,166.96965 c -0.01025,0.39661 0.199099,0.95148 1.149945,0.95148 0.407459,0 0.710407,-0.0744 0.918766,-0.33602 0.105172,-0.13488 0.16768,-0.31316 0.16768,-0.49081 0,-0.5116 -0.366118,-0.60589 -1.149284,-0.7834 -1.09736,-0.25076 -2.016787,-0.47039 -2.016787,-1.56775 0,-0.9617 0.835753,-1.58853 2.047545,-1.58853 0.659143,0 1.578239,0.1872 1.892432,0.81532 0.135599,0.292 0.135599,0.54338 0.135599,0.76302 h -1.003102 c 0.03109,-0.79441 -0.658482,-0.85669 -1.013685,-0.85669 -0.146513,0 -1.06594,0 -1.06594,0.75241 0,0.47996 0.470297,0.59571 0.741826,0.66821 1.452562,0.34492 1.765763,0.42889 2.079294,0.72165 0.293026,0.27183 0.397537,0.63692 0.397537,0.97099 0,0.58563 -0.324115,1.08844 -0.711068,1.32822 -0.460044,0.28241 -1.013354,0.35515 -1.556742,0.35515 -1.06561,0 -2.05879,-0.43783 -2.048206,-1.70262 h 1.03419"
       style="fill:#ffffff;fill-opacity:1;fill-rule:nonzero;stroke:none;stroke-width:0.33072916;stroke-opacity:1"
       id="path48" />
    <path
       d="m 61.974078,165.39171 c 0.0096,-0.50205 -0.08268,-1.54643 -1.295135,-1.54643 -0.638307,0 -1.411222,0.3863 -1.432057,1.54643 z m -2.769195,0.68858 c -0.02117,1.08843 0.428294,1.89278 1.504818,1.89278 0.637315,0 1.149284,-0.33396 1.233289,-1.08637 h 0.981935 c -0.03175,0.25956 -0.07309,0.68846 -0.448138,1.09657 -0.230519,0.26162 -0.75274,0.69957 -1.808758,0.69957 -1.651,0 -2.435159,-1.02332 -2.435159,-2.68524 0,-1.03481 0.209021,-1.89276 1.034851,-2.46562 0.501717,-0.35642 1.128448,-0.38754 1.432058,-0.38754 2.350492,0 2.298898,2.07995 2.278062,2.93585 h -3.772958"
       style="fill:#ffffff;fill-opacity:1;fill-rule:nonzero;stroke:none;stroke-width:0.33072916;stroke-opacity:1"
       id="path50" />
    <path
       d="m 67.827323,165.94541 c -0.398198,0 -1.892763,0 -1.892763,1.06661 0,0.33395 0.209352,0.9095 1.08843,0.9095 0.501385,0 0.87544,-0.20012 1.117534,-0.56586 0.21795,-0.35591 0.229856,-0.64725 0.250362,-1.37846 -0.177602,-0.0212 -0.324776,-0.0318 -0.563563,-0.0318 z m 0.677995,2.58098 c -0.07243,-0.26226 -0.09294,-0.51224 -0.09294,-0.78483 -0.470958,0.86816 -1.181365,0.95149 -1.619911,0.95149 -1.202201,0 -1.849438,-0.6789 -1.849438,-1.54706 0,-0.41678 0.145852,-1.08585 0.919096,-1.53633 0.565217,-0.31317 1.399646,-0.34432 1.818349,-0.34432 0.252016,0 0.406467,0.0103 0.710407,0.0311 0,-0.64724 0,-0.93031 -0.188516,-1.1595 -0.198107,-0.26095 -0.627063,-0.34571 -0.909505,-0.34571 -0.99318,0 -1.045104,0.68031 -1.054034,0.8887 H 65.25623 c 0.03109,-0.27117 0.06251,-0.63755 0.364794,-0.99219 0.398198,-0.43848 1.140354,-0.56455 1.693995,-0.56455 0.761338,0 1.577909,0.2412 1.860351,0.77334 0.167018,0.31313 0.176279,0.56379 0.176279,0.80357 l -0.04233,2.50964 c 0,0.0833 0.01257,0.78343 0.08434,1.31622 h -0.888338"
       style="fill:#ffffff;fill-opacity:1;fill-rule:nonzero;stroke:none;stroke-width:0.33072916;stroke-opacity:1"
       id="path52" />
    <path
       d="m 72.059334,164.34604 c 0,-0.3553 -0.02249,-0.72168 -0.05226,-1.06597 h 0.992849 l 0.02084,1.01339 c 0.187193,-0.73059 0.814917,-0.97116 1.253133,-1.03433 0.292365,-0.042 0.513292,-0.0316 0.679649,-0.021 v 0.96169 c -0.05192,-0.0208 -0.114433,-0.0311 -0.188847,-0.0413 -0.07276,-0.0116 -0.167349,-0.0116 -0.281781,-0.0116 -1.159206,0 -1.432057,0.69 -1.432057,1.58919 v 2.79039 h -0.991526 v -4.18075"
       style="fill:#ffffff;fill-opacity:1;fill-rule:nonzero;stroke:none;stroke-width:0.33072916;stroke-opacity:1"
       id="path54" />
    <path
       d="m 79.948547,164.96279 c -0.02084,-0.24044 -0.0936,-1.0967 -1.043781,-1.0967 -1.360289,0 -1.360289,1.57691 -1.360289,1.97481 0,1.07679 0.261607,2.08062 1.30638,2.08062 0.836083,0 1.119188,-0.62774 1.140354,-1.14012 h 0.991526 c -0.06251,1.02462 -0.824838,1.88064 -2.120635,1.88064 -0.355534,0 -1.169789,-0.0725 -1.725083,-0.67838 -0.31287,-0.36613 -0.626732,-0.91972 -0.626732,-2.0062 0,-2.18516 1.338791,-2.8324 2.382573,-2.8324 0.345612,0 1.129109,0.0731 1.609328,0.64724 0.387614,0.45012 0.418041,0.87852 0.439208,1.17115 h -0.99318"
       style="fill:#ffffff;fill-opacity:1;fill-rule:nonzero;stroke:none;stroke-width:0.33072916;stroke-opacity:1"
       id="path56" />
    <path
       d="m 82.549732,160.99208 h 0.993511 v 3.0612 c 0.323453,-0.55357 0.972013,-0.8675 1.702924,-0.8675 0.554633,0 1.348714,0.19906 1.651662,0.83638 0.104841,0.20942 0.178263,0.46004 0.178263,1.22277 v 3.28146 h -1.004094 v -3.10396 c 0,-0.47023 0,-1.48424 -1.12911,-1.48424 -0.731903,0 -1.096698,0.4488 -1.232296,0.70084 -0.167349,0.29263 -0.167349,0.7834 -0.167349,1.10729 v 2.78007 h -0.993511 v -7.53431"
       style="fill:#ffffff;fill-opacity:1;fill-rule:nonzero;stroke:none;stroke-width:0.33072916;stroke-opacity:1"
       id="path58" />
  </g>
</svg>
