<?xml version="1.0" encoding="UTF-8" standalone="no"?>
<!-- Created with Inkscape (http://www.inkscape.org/) -->

<svg
   xmlns:dc="http://purl.org/dc/elements/1.1/"
   xmlns:cc="http://creativecommons.org/ns#"
   xmlns:rdf="http://www.w3.org/1999/02/22-rdf-syntax-ns#"
   xmlns:svg="http://www.w3.org/2000/svg"
   xmlns="http://www.w3.org/2000/svg"
   xmlns:sodipodi="http://sodipodi.sourceforge.net/DTD/sodipodi-0.dtd"
   xmlns:inkscape="http://www.inkscape.org/namespaces/inkscape"
   id="svg2"
   version="1.1"
   inkscape:version="0.91 r13725"
   xml:space="preserve"
   width="531.625"
   height="114.375"
   viewBox="0 0 531.625 114.375"
   sodipodi:docname="ealogo-blue.svg"><metadata
     id="metadata8"><rdf:RDF><cc:Work
         rdf:about=""><dc:format>image/svg+xml</dc:format><dc:type
           rdf:resource="http://purl.org/dc/dcmitype/StillImage" /><dc:title></dc:title></cc:Work></rdf:RDF></metadata><defs
     id="defs6" /><sodipodi:namedview
     pagecolor="#ffffff"
     bordercolor="#666666"
     borderopacity="1"
     objecttolerance="10"
     gridtolerance="10"
     guidetolerance="10"
     inkscape:pageopacity="0"
     inkscape:pageshadow="2"
     inkscape:window-width="1863"
     inkscape:window-height="1171"
     id="namedview4"
     showgrid="false"
     inkscape:zoom="1.3881966"
     inkscape:cx="248.01963"
     inkscape:cy="10.472094"
     inkscape:window-x="1920"
     inkscape:window-y="0"
     inkscape:window-maximized="1"
     inkscape:current-layer="g10" /><g
     id="g10"
     inkscape:groupmode="layer"
     inkscape:label="ink_ext_XXXXXX"
     transform="matrix(1.25,0,0,-1.25,0,114.375)"><path
       inkscape:connector-curvature="0"
       id="path14"
       style="fill:#005572;fill-opacity:1;fill-rule:nonzero;stroke:none"
       d="m 58.5066,79.5309 c -4.6968,0 -8.1128,-3.736 -8.539,-9.1821 l 16.0121,0 c 0.2129,5.9793 -2.777,9.1821 -7.4731,9.1821 z m 22.9508,-19.961 -31.5976,0 c 0.107,-7.0449 4.375,-11.1019 13.1289,-11.1019 5.2301,0 10.6738,1.066 15.584,3.309 l 1.4961,-12.2731 c -5.977,-2.457 -13.1293,-3.6348 -19.643,-3.6348 -17.3981,0 -27.0063,8.4379 -27.0063,27.1149 0,16.334 9.0743,28.3949 25.5121,28.3949 16.0122,0 23.0571,-10.7809 23.0571,-24.6559 0,-2.2421 -0.2129,-4.5921 -0.5313,-7.1519" /><path
       inkscape:connector-curvature="0"
       id="path16"
       style="fill:#005572;fill-opacity:1;fill-rule:nonzero;stroke:none"
       d="m 120.843,59.6762 c -9.607,0 -14.515,-2.0274 -14.515,-6.9371 0,-2.7731 1.922,-4.695 5.338,-4.695 5.443,0 9.177,5.0161 9.177,10.1387 l 0,1.4942 0,-8e-4 z m 1.496,-22.7352 c 0,2.668 0,5.443 0.425,8.111 l -0.107,0 c -2.561,-5.5489 -8.857,-9.184 -16.222,-9.184 -10.1412,0 -15.4795,5.9789 -15.4795,14.5211 0,13.4488 13.0215,19.2129 29.8875,19.4257 l 0,2.668 c 0,4.5922 -2.027,6.6192 -8.645,6.6192 -2.241,0 -4.271,-0.32 -5.977,-0.7481 -0.216,-1.707 -0.534,-3.8418 -0.96,-5.8711 l -10.3544,0 0,16.2274 c 5.7634,1.707 12.2734,2.775 18.6804,2.775 18.464,0 23.589,-6.8321 23.589,-19.0024 l 0,-23.0547 c 2.561,-0.4281 5.87,-0.8543 8.538,-1.0679 l 0,-10.568 c -6.938,-0.7461 -15.691,-1.1723 -23.375,-0.8524" /><path
       inkscape:connector-curvature="0"
       id="path18"
       style="fill:#005572;fill-opacity:1;fill-rule:nonzero;stroke:none"
       d="m 229.571,78.4629 -12.485,-41.416 -17.934,0 -5.766,18.4672 c -1.173,3.8437 -2.132,7.791 -3.095,12.7007 l -0.106,0 C 189.119,63.1988 188.05,59.25 186.664,54.873 l -5.232,-17.8261 -17.612,0 -12.168,41.416 c -1.709,0.2152 -3.416,0.4281 -5.018,0.8551 l 0,10.7789 26.045,0 0,-10.7789 c -1.281,-0.32 -2.562,-0.5352 -4.056,-0.641 l 2.67,-9.82 c 1.068,-4.057 2.239,-8.1129 3.095,-12.3832 l 0.213,0 c 0.961,5.7641 2.347,10.3543 3.737,14.8383 l 5.869,18.7848 14.304,0 5.764,-18.7848 c 1.602,-5.2301 2.668,-9.607 3.839,-14.8383 l 0.216,0 c 0.752,4.1641 1.709,7.5782 2.672,11.3141 l 3.196,10.8891 c -1.382,0.105 -2.772,0.3199 -4.05,0.641 l 0,10.7789 24.441,0 0,-10.7789 c -1.601,-0.4282 -3.307,-0.641 -5.018,-0.8551" /><path
       inkscape:connector-curvature="0"
       id="path20"
       style="fill:#005572;fill-opacity:1;fill-rule:nonzero;stroke:none"
       d="m 267.041,59.6762 c -9.611,0 -14.516,-2.0274 -14.516,-6.9371 0,-2.7731 1.92,-4.695 5.336,-4.695 5.441,0 9.18,5.0161 9.18,10.1387 l 0,1.4942 0,-8e-4 z m 1.492,-22.7352 c 0,2.668 0,5.443 0.43,8.111 l -0.106,0 c -2.564,-5.5489 -8.863,-9.184 -16.227,-9.184 -10.142,0 -15.478,5.9789 -15.478,14.5211 0,13.4488 13.024,19.2129 29.889,19.4257 l 0,2.668 c 0,4.5922 -2.03,6.6192 -8.645,6.6192 -2.244,0 -4.275,-0.32 -5.976,-0.7481 -0.215,-1.707 -0.537,-3.8418 -0.967,-5.8711 l -10.352,0 0,16.2274 c 5.763,1.707 12.276,2.775 18.679,2.775 18.466,0 23.593,-6.8321 23.593,-19.0024 l 0,-23.0547 C 285.93,49 289.242,48.5738 291.91,48.3602 l 0,-10.568 c -6.939,-0.7461 -15.69,-1.1723 -23.377,-0.8524" /><path
       inkscape:connector-curvature="0"
       id="path22"
       style="fill:#005572;fill-opacity:1;fill-rule:nonzero;stroke:none"
       d="m 320.105,79.6371 c -5.23,0 -8.432,-3.0961 -8.432,-7.684 0,-4.8051 2.991,-7.7929 8.538,-7.7929 5.019,0 8.328,2.8808 8.328,7.6859 0,4.6949 -2.993,7.791 -8.434,7.791 z m 5.106,-45.182 -8.434,0 c -0.639,0 -1.604,0 -2.135,0.1051 -2.242,-1.4961 -3.713,-5.018 -3.826,-7.2602 -0.238,-4.768 1.254,-10.3891 9.563,-10.3891 7.582,0 11.662,8.043 11.662,12.2071 0,2.8789 -1.918,5.3359 -6.83,5.3359 l 0,0.0012 z M 318.683,4.69492 c -14.408,0 -23.707,9.41208 -23.707,19.87308 0,5.014 3.672,11.8379 7.731,13.8691 -3.096,1.4899 -5.125,4.482 -5.125,8.2168 0,4.268 2.775,8.2191 6.406,9.7133 -4.803,2.5609 -7.902,7.6859 -7.902,14.6226 0,11.1043 7.902,20.3891 24.556,20.3891 3.733,0 6.828,-0.5328 9.924,-1.2809 l 17.823,0 0,-12.8089 -6.084,0 c 1.072,-1.0661 1.602,-2.775 1.602,-4.8051 0,-11.7399 -8.005,-19.211 -23.481,-19.211 -1.069,0 -2.455,0.1051 -3.631,0.2129 -1.388,-0.5347 -1.92,-1.7089 -1.92,-2.6699 0,-2.1351 1.496,-2.773 7.58,-2.773 l 7.256,0 c 11.423,0 18.103,-6.8239 18.103,-17.391 0,-11.6391 -10.771,-25.95708 -29.132,-25.95708" /><path
       inkscape:connector-curvature="0"
       id="path24"
       style="fill:#005572;fill-opacity:1;fill-rule:nonzero;stroke:none"
       d="m 366.519,22.8691 c -4.717,0 -8.553,-3.8402 -8.553,-8.557 0,-4.71522 3.836,-8.55507 8.553,-8.55507 4.715,0 8.554,3.83985 8.554,8.55507 0,4.7168 -3.839,8.557 -8.554,8.557 z m 5.969,-8.5562 c 0,-3.291 -2.678,-5.96876 -5.969,-5.96876 -3.291,0 -5.967,2.67776 -5.967,5.96876 0,3.293 2.676,5.9691 5.967,5.9691 3.291,0 5.969,-2.6761 5.969,-5.9691" /><path
       inkscape:connector-curvature="0"
       id="path26"
       style="fill:#005572;fill-opacity:1;fill-rule:nonzero;stroke:none"
       d="m 391.918,22.8691 c -4.715,0 -8.554,-3.8402 -8.554,-8.557 0,-4.71522 3.839,-8.55507 8.554,-8.55507 4.721,0 8.562,3.83985 8.562,8.55507 0,4.7168 -3.841,8.557 -8.562,8.557 z m 5.976,-8.5562 c 0,-3.291 -2.681,-5.96876 -5.976,-5.96876 -3.291,0 -5.965,2.67776 -5.965,5.96876 0,3.293 2.674,5.9691 5.965,5.9691 3.295,0 5.976,-2.6761 5.976,-5.9691" /><path
       inkscape:connector-curvature="0"
       id="path28"
       style="fill:#005572;fill-opacity:1;fill-rule:nonzero;stroke:none"
       d="m 416.691,22.8691 c -4.713,0 -8.549,-3.8402 -8.549,-8.557 0,-4.71522 3.836,-8.55507 8.549,-8.55507 4.717,0 8.557,3.83985 8.557,8.55507 0,4.7168 -3.84,8.557 -8.557,8.557 z m 5.969,-8.5562 c 0,-3.291 -2.678,-5.96876 -5.969,-5.96876 -3.289,0 -5.963,2.67776 -5.963,5.96876 0,3.293 2.674,5.9691 5.963,5.9691 3.291,0 5.969,-2.6761 5.969,-5.9691" /><path
       inkscape:connector-curvature="0"
       id="path30"
       style="fill:#005572;fill-opacity:1;fill-rule:nonzero;stroke:none"
       d="m 8.7707,13.9039 c -1.20117,0 -5.71914,0 -5.71914,-3.225 0,-1.00976 0.63321,-2.74999 3.28516,-2.74999 1.51601,0 2.65391,0.60507 3.38281,1.71093 0.66207,1.07616 0.69297,1.95706 0.75627,4.16796 -0.53517,0.0641 -0.97932,0.0961 -1.7051,0.0961 z M 10.8227,6.1 C 10.6016,6.89297 10.5395,7.64883 10.5395,8.47305 9.11758,5.84805 6.96953,5.59609 5.6418,5.59609 c -3.63321,0 -5.5921906,2.05274 -5.5921906,4.67771 0,1.2602 0.4410156,3.2832 2.7789106,4.6453 1.70703,0.9469 4.23593,1.0411 5.49804,1.0411 0.76016,0 1.23399,-0.0313 2.14804,-0.0942 0,1.957 0,2.8129 -0.56601,3.5059 -0.6,0.789 -1.89609,1.0453 -2.75,1.0453 -3,0 -3.16015,-2.057 -3.19101,-2.6871 l -2.971096,0 c 0.094146,0.8199 0.191016,1.9277 1.105076,3 1.20117,1.3258 3.44492,1.707 5.11914,1.707 2.30703,0 4.7731,-0.7293 5.625,-2.3383 0.5059,-0.9468 0.5367,-1.7047 0.5367,-2.4297 l -0.125,-7.5882 c 0,-0.25199 0.0313,-2.36879 0.2524,-3.97973 l -2.6871,0" /><path
       inkscape:connector-curvature="0"
       id="path32"
       style="fill:#005572;fill-opacity:1;fill-rule:nonzero;stroke:none"
       d="m 27.6027,20.0039 c -4.266,0 -4.3281,-4.4879 -4.3281,-5.723 0,-1.1329 0.1578,-3.4387 1.2949,-5.05473 0.695,-1.01015 1.9282,-1.54726 3.4121,-1.54726 3.6661,0 4.393,2.87499 4.393,6.03519 0,1.2968 0,6.289 -4.7711,6.289 l -8e-4,8e-4 z m 7.7418,1.959 c -0.0308,-0.6328 -0.0621,-2.0207 -0.0621,-2.5918 l 0,-19.3711 -3.0019,0 0,7.87109 C 32.0266,7.49414 31.7105,6.98203 30.9836,6.50781 29.6574,5.59609 28.1395,5.49805 27.4137,5.49805 c -3.8539,0 -7.236,2.71914 -7.236,8.59805 0,5.8461 3.318,8.1211 6.668,8.1211 3.2231,0 4.707,-1.7703 5.402,-2.875 l 0.0961,2.6207 3.0019,0" /><path
       inkscape:connector-curvature="0"
       id="path34"
       style="fill:#005572;fill-opacity:1;fill-rule:nonzero;stroke:none"
       d="m 46.1195,21.9629 0,-10.2051 c 0,-1.5527 0.3481,-3.50975 3.3789,-3.50975 1.4864,0 2.8774,0.5039 3.7293,1.76995 0.6661,0.9468 0.6661,2.182 0.6661,2.975 l 0,8.9711 3.0628,0 0,-12.89301 c 0,-0.31796 0.0641,-2.08828 0.0961,-2.97109 l -3.0961,0 -0.0621,2.71914 c -0.5699,-1.10703 -1.6449,-2.87695 -5.059,-2.87695 -3.916,0 -5.75,2.24375 -5.75,5.37261 l 0,10.6481 3.0352,0" /><path
       inkscape:connector-curvature="0"
       id="path36"
       style="fill:#005572;fill-opacity:1;fill-rule:nonzero;stroke:none"
       d="m 73.0086,13.9039 c -1.1988,0 -5.7191,0 -5.7191,-3.225 0,-1.00976 0.6332,-2.74999 3.2851,-2.74999 1.518,0 2.6539,0.60507 3.3809,1.71093 0.664,1.07616 0.6953,1.95706 0.7582,4.16796 -0.5371,0.0641 -0.9789,0.0961 -1.7051,0.0961 z M 75.0637,6.1 c -0.2231,0.79297 -0.2852,1.54883 -0.2852,2.37305 -1.4219,-2.625 -3.5699,-2.87696 -4.8961,-2.87696 -3.6347,0 -5.5937,2.05274 -5.5937,4.67771 0,1.2602 0.441,3.2832 2.7789,4.6453 1.707,0.9469 4.234,1.0411 5.498,1.0411 0.7578,0 1.234,-0.0313 2.1481,-0.0942 0,1.957 0,2.8129 -0.568,3.5059 -0.6,0.789 -1.8961,1.0453 -2.748,1.0453 -3.002,0 -3.1602,-2.057 -3.1911,-2.6871 l -2.9711,0 c 0.0961,0.8199 0.1891,1.9277 1.1051,3 1.2032,1.3258 3.4449,1.707 5.1192,1.707 2.309,0 4.7707,-0.7293 5.625,-2.3383 0.5039,-0.9468 0.5367,-1.7047 0.5367,-2.4297 l -0.127,-7.5882 c 0,-0.25199 0.0313,-2.36879 0.252,-3.97973 l -2.684,0" /><path
       inkscape:connector-curvature="0"
       id="path38"
       style="fill:#005572;fill-opacity:1;fill-rule:nonzero;stroke:none"
       d="m 83.2137,22.025 2.8129,0 0,3.318 2.9379,0.9468 0,-4.266 3.541,0 0,-2.1797 -3.541,0 0,-9.5121 c 0,-0.78903 0,-2.11716 2.1191,-2.11716 0.6019,0 1.168,0.09414 1.4219,0.15821 l 0,-2.30703 c -0.5367,-0.0961 -1.393,-0.18907 -2.4649,-0.18907 -2.7191,0 -4.014,0.79102 -4.014,3.37891 l 0,10.58824 -2.8121,0 0,2.1797" /><path
       inkscape:connector-curvature="0"
       id="path40"
       style="fill:#005572;fill-opacity:1;fill-rule:nonzero;stroke:none"
       d="m 98.8875,21.9629 2.9695,0 0,-15.8629 -2.9695,0 0,15.8629 z m -0.3168,6.8871 3.5703,0 0,-3.2539 -3.5703,0 0,3.2539" /><path
       inkscape:connector-curvature="0"
       id="path42"
       style="fill:#005572;fill-opacity:1;fill-rule:nonzero;stroke:none"
       d="m 119.363,16.875 c -0.063,0.727 -0.285,3.316 -3.162,3.316 -4.106,0 -4.106,-4.768 -4.106,-5.9711 0,-3.2558 0.789,-6.29099 3.951,-6.29099 2.525,0 3.38,1.89804 3.442,3.44729 l 3.001,0 c -0.187,-3.09807 -2.493,-5.68636 -6.413,-5.68636 -1.074,0 -3.537,0.21914 -5.213,2.05118 -0.947,1.10703 -1.896,2.78088 -1.896,6.06598 0,6.6071 4.044,8.5641 7.204,8.5641 1.042,0 3.413,-0.2211 4.866,-1.957 1.17,-1.361 1.265,-2.6563 1.326,-3.5411 l -3,0" /><path
       inkscape:connector-curvature="0"
       id="path44"
       style="fill:#005572;fill-opacity:1;fill-rule:nonzero;stroke:none"
       d="m 140.912,18.7398 c 0,1.0743 -0.064,2.1821 -0.157,3.2231 l 3.002,0 0.061,-3.0641 c 0.57,2.209 2.467,2.9364 3.793,3.1274 0.885,0.1269 1.549,0.0957 2.055,0.0636 l 0,-2.9078 c -0.159,0.0629 -0.35,0.0942 -0.571,0.125 -0.22,0.0352 -0.503,0.0352 -0.851,0.0352 -3.508,0 -4.328,-2.0863 -4.328,-4.8051 l 0,-8.4371 -3.004,0 0,12.641" /><path
       inkscape:connector-curvature="0"
       id="path46"
       style="fill:#005572;fill-opacity:1;fill-rule:nonzero;stroke:none"
       d="m 165.905,15.5781 c 0.032,1.518 -0.251,4.6758 -3.917,4.6758 -1.928,0 -4.267,-1.168 -4.328,-4.6758 l 8.245,0 z m -8.373,-2.082 c -0.064,-3.291 1.296,-5.72305 4.55,-5.72305 1.927,0 3.475,1.00976 3.73,3.28475 l 2.97,0 c -0.095,-0.7848 -0.222,-2.08163 -1.359,-3.31561 -0.697,-0.79102 -2.275,-2.11524 -5.466,-2.11524 -4.994,0 -7.364,3.09414 -7.364,8.11915 0,3.1289 0.63,5.723 3.128,7.4551 1.517,1.0777 3.413,1.1718 4.329,1.1718 7.11,0 6.952,-6.289 6.889,-8.8769 l -11.407,0" /><path
       inkscape:connector-curvature="0"
       id="path48"
       style="fill:#005572;fill-opacity:1;fill-rule:nonzero;stroke:none"
       d="m 177.691,10.807 c -0.031,-1.19919 0.602,-2.87692 3.477,-2.87692 1.232,0 2.148,0.225 2.778,1.01601 0.318,0.40782 0.507,0.94688 0.507,1.48401 0,1.5469 -1.107,1.832 -3.475,2.3687 -3.318,0.7582 -6.098,1.4223 -6.098,4.7403 0,2.9078 2.527,4.8031 6.191,4.8031 1.993,0 4.772,-0.566 5.722,-2.4652 0.41,-0.8829 0.41,-1.643 0.41,-2.3071 l -3.033,0 c 0.094,2.402 -1.991,2.5903 -3.065,2.5903 -0.443,0 -3.223,0 -3.223,-2.275 0,-1.4512 1.422,-1.8012 2.243,-2.0204 4.392,-1.0429 5.339,-1.2968 6.287,-2.182 0.886,-0.8219 1.202,-1.9258 1.202,-2.9359 0,-1.77073 -0.98,-3.29104 -2.15,-4.01604 -1.391,-0.85391 -3.064,-1.07383 -4.707,-1.07383 -3.222,0 -6.225,1.32383 -6.193,5.14807 l 3.127,0" /><path
       inkscape:connector-curvature="0"
       id="path50"
       style="fill:#005572;fill-opacity:1;fill-rule:nonzero;stroke:none"
       d="m 204.644,15.5781 c 0.029,1.518 -0.25,4.6758 -3.916,4.6758 -1.93,0 -4.267,-1.168 -4.33,-4.6758 l 8.246,0 z m -8.373,-2.082 c -0.064,-3.291 1.295,-5.72305 4.55,-5.72305 1.927,0 3.475,1.00976 3.729,3.28475 l 2.969,0 c -0.096,-0.7848 -0.221,-2.08163 -1.355,-3.31561 -0.697,-0.79102 -2.276,-2.11524 -5.469,-2.11524 -4.992,0 -7.363,3.09414 -7.363,8.11915 0,3.1289 0.632,5.723 3.129,7.4551 1.517,1.0777 3.412,1.1718 4.33,1.1718 7.107,0 6.951,-6.289 6.888,-8.8769 l -11.408,0" /><path
       inkscape:connector-curvature="0"
       id="path52"
       style="fill:#005572;fill-opacity:1;fill-rule:nonzero;stroke:none"
       d="m 222.342,13.9039 c -1.204,0 -5.723,0 -5.723,-3.225 0,-1.00976 0.633,-2.74999 3.291,-2.74999 1.516,0 2.647,0.60507 3.379,1.71093 0.659,1.07616 0.695,1.95706 0.757,4.16796 -0.537,0.0641 -0.982,0.0961 -1.704,0.0961 z M 224.392,6.1 c -0.219,0.79297 -0.281,1.54883 -0.281,2.37305 -1.424,-2.625 -3.572,-2.87696 -4.898,-2.87696 -3.635,0 -5.592,2.05274 -5.592,4.67771 0,1.2602 0.441,3.2832 2.779,4.6453 1.709,0.9469 4.232,1.0411 5.498,1.0411 0.762,0 1.229,-0.0313 2.148,-0.0942 0,1.957 0,2.8129 -0.57,3.5059 -0.599,0.789 -1.896,1.0453 -2.75,1.0453 -3.003,0 -3.16,-2.057 -3.187,-2.6871 l -2.971,0 c 0.094,0.8199 0.189,1.9277 1.103,3 1.204,1.3258 3.448,1.707 5.122,1.707 2.302,0 4.771,-0.7293 5.625,-2.3383 0.505,-0.9468 0.533,-1.7047 0.533,-2.4297 l -0.128,-7.5882 c 0,-0.25199 0.038,-2.36879 0.255,-3.97973 l -2.686,0" /><path
       inkscape:connector-curvature="0"
       id="path54"
       style="fill:#005572;fill-opacity:1;fill-rule:nonzero;stroke:none"
       d="m 235.138,18.7398 c 0,1.0743 -0.068,2.1821 -0.158,3.2231 l 3.002,0 0.063,-3.0641 c 0.566,2.209 2.464,2.9364 3.789,3.1274 0.884,0.1269 1.552,0.0957 2.055,0.0636 l 0,-2.9078 c -0.157,0.0629 -0.346,0.0942 -0.571,0.125 -0.22,0.0352 -0.506,0.0352 -0.852,0.0352 -3.505,0 -4.33,-2.0863 -4.33,-4.8051 l 0,-8.4371 -2.998,0 0,12.641" /><path
       inkscape:connector-curvature="0"
       id="path56"
       style="fill:#005572;fill-opacity:1;fill-rule:nonzero;stroke:none"
       d="m 258.992,16.875 c -0.063,0.727 -0.283,3.316 -3.156,3.316 -4.113,0 -4.113,-4.768 -4.113,-5.9711 0,-3.2558 0.791,-6.29099 3.95,-6.29099 2.528,0 3.384,1.89804 3.448,3.44729 l 2.998,0 c -0.189,-3.09807 -2.494,-5.68636 -6.412,-5.68636 -1.075,0 -3.537,0.21914 -5.216,2.05118 -0.946,1.10703 -1.895,2.78088 -1.895,6.06598 0,6.6071 4.048,8.5641 7.204,8.5641 1.045,0 3.414,-0.2211 4.866,-1.957 1.172,-1.361 1.264,-2.6563 1.328,-3.5411 l -3.003,0" /><path
       inkscape:connector-curvature="0"
       id="path58"
       style="fill:#005572;fill-opacity:1;fill-rule:nonzero;stroke:none"
       d="m 266.857,28.8809 3.004,0 0,-9.2559 c 0.978,1.6738 2.939,2.623 5.149,2.623 1.677,0 4.078,-0.6019 4.994,-2.5289 0.317,-0.6332 0.539,-1.391 0.539,-3.6972 l 0,-9.9219 -3.036,0 0,9.3852 c 0,1.4218 0,4.4878 -3.414,4.4878 -2.213,0 -3.316,-1.357 -3.726,-2.1191 -0.506,-0.8848 -0.506,-2.3687 -0.506,-3.348 l 0,-8.4059 -3.004,0 0,22.7809" /></g></svg>