<?xml version="1.0" encoding="UTF-8" standalone="no"?>
<svg
   xmlns:dc="http://purl.org/dc/elements/1.1/"
   xmlns:cc="http://creativecommons.org/ns#"
   xmlns:rdf="http://www.w3.org/1999/02/22-rdf-syntax-ns#"
   xmlns:svg="http://www.w3.org/2000/svg"
   xmlns="http://www.w3.org/2000/svg"
   xmlns:sodipodi="http://sodipodi.sourceforge.net/DTD/sodipodi-0.dtd"
   xmlns:inkscape="http://www.inkscape.org/namespaces/inkscape"
   id="svg83"
   version="1.1"
   viewBox="0 0 242.49488 50.682265"
   height="50.682266mm"
   width="242.49487mm"
   sodipodi:docname="logo_eric.svg"
   inkscape:version="0.92.1 r15371">
  <sodipodi:namedview
     pagecolor="#ffffff"
     bordercolor="#666666"
     borderopacity="1"
     objecttolerance="10"
     gridtolerance="10"
     guidetolerance="10"
     inkscape:pageopacity="0"
     inkscape:pageshadow="2"
     inkscape:window-width="1868"
     inkscape:window-height="1171"
     id="namedview35"
     showgrid="false"
     fit-margin-top="0"
     fit-margin-left="0"
     fit-margin-right="0"
     fit-margin-bottom="0"
     inkscape:zoom="0.85289009"
     inkscape:cx="774.52657"
     inkscape:cy="78.047776"
     inkscape:window-x="1920"
     inkscape:window-y="0"
     inkscape:window-maximized="1"
     inkscape:current-layer="g4713"
     showguides="true"
     inkscape:guide-bbox="true">
    <sodipodi:guide
       position="20.18098,1.7548678"
       orientation="0,1"
       id="guide4804"
       inkscape:locked="false" />
    <sodipodi:guide
       position="230.49327,92.135257"
       orientation="1,0"
       id="guide4806"
       inkscape:locked="false" />
  </sodipodi:namedview>
  <defs
     id="defs77" />
  <metadata
     id="metadata80">
    <rdf:RDF>
      <cc:Work
         rdf:about="">
        <dc:format>image/svg+xml</dc:format>
        <dc:type
           rdf:resource="http://purl.org/dc/dcmitype/StillImage" />
        <dc:title></dc:title>
      </cc:Work>
    </rdf:RDF>
  </metadata>
  <g
     id="g4713"
     transform="translate(-32.568713,-0.40279697)">
    <g
       transform="translate(38.259965,-131.33455)"
       id="text4136-7-3-7-9-6"
       style="font-style:normal;font-weight:normal;font-size:6.74699163px;line-height:0%;font-family:sans-serif;letter-spacing:0px;word-spacing:0px;fill:#ff9955;fill-opacity:1;stroke:none;stroke-width:0.5622493px;stroke-linecap:butt;stroke-linejoin:miter;stroke-opacity:1"
       aria-label="ERIC">
      <path
         id="path842"
         style="font-style:italic;font-variant:normal;font-weight:500;font-stretch:normal;font-size:42.52009964px;line-height:125%;font-family:'Exo 2';-inkscape-font-specification:'Exo 2, Medium Italic';text-align:start;writing-mode:lr-tb;text-anchor:start;fill:#ff9955;fill-opacity:1;stroke-width:0.5622493px"
         d="m 150.37322,142.9252 h 11.56547 l 0.55276,-3.31657 c -3.82681,-0.34016 -8.33394,-0.34016 -12.62847,-0.34016 -3.82681,0 -5.99533,1.95593 -6.46305,5.18746 l -2.50869,18.15608 c -0.51024,3.78429 1.40317,6.16541 6.03786,6.16541 3.82681,0 8.12134,0 11.77806,-0.34016 l 0.085,-3.31657 H 147.4393 c -1.87089,0 -2.46617,-0.68032 -2.21105,-2.63624 l 1.02048,-7.56858 h 12.41587 l 0.4252,-3.27405 h -12.3733 l 0.80788,-5.95281 c 0.25512,-2.04097 1.02048,-2.76381 2.84884,-2.76381 z"
         inkscape:connector-curvature="0" />
      <path
         id="path844"
         style="font-style:italic;font-variant:normal;font-weight:500;font-stretch:normal;font-size:42.52009964px;line-height:125%;font-family:'Exo 2';-inkscape-font-specification:'Exo 2, Medium Italic';text-align:start;writing-mode:lr-tb;text-anchor:start;fill:#ff9955;fill-opacity:1;stroke-width:0.5622493px"
         d="m 187.00628,147.64493 c 0.89293,-6.71817 -2.63624,-8.6741 -8.6741,-8.6741 -4.29453,0 -6.84573,0.0425 -10.07726,0.38268 l -4.12445,29.33887 h 4.16697 l 1.7008,-12.11823 c 1.57325,0.0425 3.57169,0.0425 6.25046,0.0425 1.82836,0 2.7638,0.72285 3.14649,2.84885 l 1.74332,9.22686 h 4.33705 l -1.87088,-9.18434 c -0.46773,-2.5512 -1.53073,-3.82681 -3.18901,-4.29453 l 0.0425,-0.25512 c 4.16697,-0.51024 5.95281,-3.01893 6.54809,-7.31346 z m -10.63002,5.31502 h -5.86778 l 1.44569,-10.28987 c 1.65828,0 3.78429,-0.0425 6.25045,-0.0425 3.99689,0 5.05989,1.14804 4.50713,4.93233 -0.59528,4.12445 -2.25356,5.35754 -6.33549,5.40006 z"
         inkscape:connector-curvature="0" />
      <path
         id="path846"
         style="font-style:italic;font-variant:normal;font-weight:500;font-stretch:normal;font-size:42.52009964px;line-height:125%;font-family:'Exo 2';-inkscape-font-specification:'Exo 2, Medium Italic';text-align:start;writing-mode:lr-tb;text-anchor:start;fill:#ff9955;fill-opacity:1;stroke-width:0.5622493px"
         d="m 198.95842,139.35351 h -4.29453 l -4.12445,29.33887 h 4.29453 z"
         inkscape:connector-curvature="0" />
      <path
         id="path848"
         style="font-style:italic;font-variant:normal;font-weight:500;font-stretch:normal;font-size:42.52009964px;line-height:125%;font-family:'Exo 2';-inkscape-font-specification:'Exo 2, Medium Italic';text-align:start;writing-mode:lr-tb;text-anchor:start;fill:#ff9955;fill-opacity:1;stroke-width:0.5622493px"
         d="m 216.41624,138.84327 c -8.50402,0 -11.94815,3.91185 -13.47887,15.0096 -1.57324,10.71506 1.19056,15.34975 9.65206,15.34975 3.82681,0 6.16542,-0.25512 8.75914,-0.97796 l -0.2126,-3.27405 c -2.42364,0.34016 -4.67721,0.51025 -8.4615,0.46773 -5.22997,-0.0425 -6.54809,-2.67877 -5.31501,-11.22531 1.2756,-9.39694 3.57169,-11.56547 8.97174,-11.56547 3.31657,0 5.01737,0.085 7.52606,0.34016 l 0.68032,-3.23153 c -2.38113,-0.59528 -4.25201,-0.89292 -8.12134,-0.89292 z"
         inkscape:connector-curvature="0" />
    </g>
    <path
       d="m 51.902142,12.906103 c -1.553369,0 -2.683139,1.23561 -2.824096,3.03679 h 5.295668 c 0.07041,-1.97753 -0.918434,-3.03679 -2.471572,-3.03679 z m 7.590499,6.60169 H 49.042393 c 0.03539,2.32995 1.44694,3.67172 4.34211,3.67172 1.729747,0 3.530137,-0.35256 5.154084,-1.09438 l 0.494804,4.05907 c -1.976768,0.8126 -4.342243,1.20213 -6.496513,1.20213 -5.754059,0 -8.931772,-2.79066 -8.931772,-8.96769 0,-5.40213 3.001136,-9.3910202 8.437596,-9.3910202 5.295702,0 7.625656,3.5655602 7.625656,8.1544302 0,0.74153 -0.07041,1.51874 -0.175717,2.36534"
       style="fill:#005d7a;fill-opacity:1;fill-rule:nonzero;stroke:none;stroke-width:0.33072916;stroke-opacity:1"
       id="path14"
       inkscape:connector-curvature="0" />
    <path
       d="m 72.518608,19.472633 c -3.177315,0 -4.800534,0.67052 -4.800534,2.2943 0,0.91715 0.635662,1.55277 1.765432,1.55277 1.800159,0 3.035102,-1.65897 3.035102,-3.35316 v -0.49417 z m 0.494771,7.51919 c 0,-0.88238 0,-1.80016 0.14056,-2.68254 h -0.03539 c -0.846998,1.83518 -2.929268,3.03742 -5.365089,3.03742 -3.35399,0 -5.119522,-1.9774 -5.119522,-4.80256 0,-4.44791 4.30659,-6.35426 9.884668,-6.42464 v -0.88239 c 0,-1.51877 -0.670388,-2.18916 -2.859154,-2.18916 -0.741164,0 -1.412544,0.10583 -1.976768,0.24742 -0.07144,0.56455 -0.176609,1.2706 -0.3175,1.94174 H 63.940682 V 9.8702428 c 1.906125,-0.56456 4.059171,-0.91777 6.178153,-0.91777 6.106584,0 7.801571,2.2595702 7.801571,6.2846402 v 7.62487 c 0.846997,0.14158 1.94138,0.28254 2.823765,0.35318 v 3.49515 c -2.294599,0.24675 -5.189471,0.38771 -7.730794,0.28191"
       style="fill:#005d7a;fill-opacity:1;fill-rule:nonzero;stroke:none;stroke-width:0.33072916;stroke-opacity:1"
       id="path16"
       inkscape:connector-curvature="0" />
    <path
       d="m 108.47813,13.259323 -4.12915,13.69748 h -5.931301 l -1.906985,-6.10764 c -0.387945,-1.27123 -0.705114,-2.57671 -1.023607,-4.20049 h -0.03506 c -0.352557,1.65893 -0.706107,2.96492 -1.164497,4.41252 l -1.730375,5.89561 h -5.824799 l -4.024313,-13.69748 c -0.565216,-0.0712 -1.129771,-0.14158 -1.659599,-0.28281 V 9.4116228 h 8.613841 v 3.5648902 c -0.423664,0.10584 -0.847328,0.17701 -1.341437,0.212 l 0.883047,3.24776 c 0.353218,1.34177 0.740502,2.68317 1.023606,4.09549 h 0.07045 c 0.317831,-1.90636 0.776221,-3.42447 1.235935,-4.90746 l 1.941049,-6.2126802 h 4.73075 l 1.906325,6.2126802 c 0.52983,1.72974 0.88238,3.17731 1.26967,4.90746 h 0.0714 c 0.24871,-1.37719 0.56521,-2.50633 0.88371,-3.74191 l 1.05701,-3.60134 c -0.45707,-0.0347 -0.91679,-0.1058 -1.33946,-0.212 V 9.4116228 h 8.08335 v 3.5648902 c -0.52949,0.14162 -1.09372,0.212 -1.65959,0.28281"
       style="fill:#005d7a;fill-opacity:1;fill-rule:nonzero;stroke:none;stroke-width:0.33072916;stroke-opacity:1"
       id="path18"
       inkscape:connector-curvature="0" />
    <path
       d="m 120.87055,19.472633 c -3.17864,0 -4.80086,0.67052 -4.80086,2.2943 0,0.91715 0.635,1.55277 1.76477,1.55277 1.7995,0 3.03609,-1.65897 3.03609,-3.35316 v -0.49417 z m 0.49345,7.51919 c 0,-0.88238 0,-1.80016 0.14221,-2.68254 h -0.0351 c -0.84799,1.83518 -2.93125,3.03742 -5.36674,3.03742 -3.35425,0 -5.11902,-1.9774 -5.11902,-4.80256 0,-4.44791 4.30741,-6.35426 9.88516,-6.42464 v -0.88239 c 0,-1.51877 -0.67138,-2.18916 -2.85915,-2.18916 -0.74216,0 -1.41387,0.10583 -1.97644,0.24742 -0.0711,0.56455 -0.1776,1.2706 -0.31982,1.94174 h -3.4237 V 9.8702428 c 1.90599,-0.56456 4.06003,-0.91777 6.17769,-0.91777 6.10724,0 7.80289,2.2595702 7.80289,6.2846402 v 7.62487 c 0.84567,0.14158 1.94105,0.28254 2.82343,0.35318 v 3.49515 c -2.29493,0.24675 -5.18914,0.38771 -7.73145,0.28191"
       style="fill:#005d7a;fill-opacity:1;fill-rule:nonzero;stroke:none;stroke-width:0.33072916;stroke-opacity:1"
       id="path20"
       inkscape:connector-curvature="0" />
    <path
       d="m 138.42037,12.870983 c -1.72972,0 -2.78871,1.02397 -2.78871,2.54132 0,1.58919 0.98921,2.57734 2.82377,2.57734 1.65993,0 2.75431,-0.95276 2.75431,-2.54195 0,-1.55274 -0.98987,-2.57671 -2.78937,-2.57671 z m 1.6887,14.943 h -2.78937 c -0.21134,0 -0.53049,0 -0.70611,-0.0348 -0.74149,0.49481 -1.22799,1.6596 -1.26537,2.40116 -0.0787,1.57692 0.41474,3.43598 3.16277,3.43598 2.50759,0 3.85696,-2.66005 3.85696,-4.03724 0,-0.95214 -0.63434,-1.76474 -2.25888,-1.76474 z m -2.159,9.84256 c -4.76515,0 -7.8406,-3.11285 -7.8406,-6.5726 0,-1.65828 1.21444,-3.91514 2.55687,-4.58692 -1.02394,-0.49275 -1.69499,-1.48233 -1.69499,-2.71754 0,-1.41155 0.91778,-2.71829 2.11866,-3.21247 -1.5885,-0.84696 -2.61343,-2.54195 -2.61343,-4.83612 0,-3.67251 2.61343,-6.7432702 8.12139,-6.7432702 1.23461,0 2.25822,0.17621 3.28216,0.42363 h 5.89458 v 4.2362802 h -2.01215 c 0.35454,0.35259 0.52982,0.91777 0.52982,1.58919 0,3.88272 -2.64748,6.35363 -7.76585,6.35363 -0.35355,0 -0.81194,-0.0348 -1.20088,-0.0704 -0.45905,0.17684 -0.635,0.56519 -0.635,0.88302 0,0.70614 0.49477,0.91711 2.50693,0.91711 h 2.39977 c 3.77792,0 5.98719,2.25686 5.98719,5.75171 0,3.84939 -3.56228,8.58476 -9.6348,8.58476"
       style="fill:#005d7a;fill-opacity:1;fill-rule:nonzero;stroke:none;stroke-width:0.33072916;stroke-opacity:1"
       id="path22"
       inkscape:connector-curvature="0" />
    <path
       d="m 153.77083,31.645813 c -1.56005,0 -2.82872,1.27007 -2.82872,2.83005 0,1.55946 1.26867,2.82941 2.82872,2.82941 1.55939,0 2.82906,-1.26995 2.82906,-2.82941 0,-1.55998 -1.26967,-2.83005 -2.82906,-2.83005 z m 1.97412,2.82979 c 0,1.08843 -0.88569,1.97404 -1.97412,1.97404 -1.08843,0 -1.97346,-0.88561 -1.97346,-1.97404 0,-1.08909 0.88503,-1.97416 1.97346,-1.97416 1.08843,0 1.97412,0.88507 1.97412,1.97416"
       style="fill:#005d7a;fill-opacity:1;fill-rule:nonzero;stroke:none;stroke-width:0.33072916;stroke-opacity:1"
       id="path24"
       inkscape:connector-curvature="0" />
    <path
       d="m 162.17102,31.645813 c -1.55939,0 -2.82905,1.27007 -2.82905,2.83005 0,1.55946 1.26966,2.82941 2.82905,2.82941 1.56138,0 2.83171,-1.26995 2.83171,-2.82941 0,-1.55998 -1.27033,-2.83005 -2.83171,-2.83005 z m 1.97644,2.82979 c 0,1.08843 -0.88668,1.97404 -1.97644,1.97404 -1.08843,0 -1.9728,-0.88561 -1.9728,-1.97404 0,-1.08909 0.88437,-1.97416 1.9728,-1.97416 1.08976,0 1.97644,0.88507 1.97644,1.97416"
       style="fill:#005d7a;fill-opacity:1;fill-rule:nonzero;stroke:none;stroke-width:0.33072916;stroke-opacity:1"
       id="path26"
       inkscape:connector-curvature="0" />
    <path
       d="m 170.36418,31.645813 c -1.55873,0 -2.82741,1.27007 -2.82741,2.83005 0,1.55946 1.26868,2.82941 2.82741,2.82941 1.56005,0 2.83005,-1.26995 2.83005,-2.82941 0,-1.55998 -1.27,-2.83005 -2.83005,-2.83005 z m 1.97412,2.82979 c 0,1.08843 -0.88569,1.97404 -1.97412,1.97404 -1.08777,0 -1.97214,-0.88561 -1.97214,-1.97404 0,-1.08909 0.88437,-1.97416 1.97214,-1.97416 1.08843,0 1.97412,0.88507 1.97412,1.97416"
       style="fill:#005d7a;fill-opacity:1;fill-rule:nonzero;stroke:none;stroke-width:0.33072916;stroke-opacity:1"
       id="path28"
       inkscape:connector-curvature="0" />
    <path
       d="m 35.453029,34.610863 c -0.397262,0 -1.891486,0 -1.891486,1.06661 0,0.33395 0.209421,0.9095 1.086498,0.9095 0.501389,0 0.877726,-0.20012 1.118794,-0.56586 0.218966,-0.35591 0.229185,-0.64725 0.250121,-1.37846 -0.176997,-0.0212 -0.32389,-0.0318 -0.563927,-0.0318 z m 0.678657,2.58098 c -0.07312,-0.26226 -0.09366,-0.51224 -0.09366,-0.78483 -0.47027,0.86816 -1.180693,0.95149 -1.619812,0.95149 -1.201609,0 -1.849501,-0.6789 -1.849501,-1.54706 0,-0.41678 0.145857,-1.08585 0.919067,-1.53633 0.564565,-0.31317 1.400946,-0.34432 1.818362,-0.34432 0.251407,0 0.408117,0.0103 0.71042,0.0311 0,-0.64724 0,-0.93031 -0.187196,-1.1595 -0.198438,-0.26095 -0.627093,-0.34571 -0.909505,-0.34571 -0.992188,0 -1.045154,0.68031 -1.055361,0.8887 h -0.982628 c 0.03114,-0.27117 0.06318,-0.63755 0.365481,-0.99219 0.397262,-0.43848 1.139336,-0.56455 1.693049,-0.56455 0.763002,0 1.578604,0.2412 1.860352,0.77334 0.167316,0.31313 0.177502,0.56379 0.177502,0.80357 l -0.04134,2.50964 c 0,0.0833 0.01035,0.78343 0.08348,1.31622 h -0.888702"
       style="fill:#005d7a;fill-opacity:1;fill-rule:nonzero;stroke:none;stroke-width:0.33072916;stroke-opacity:1"
       id="path30"
       inkscape:connector-curvature="0" />
    <path
       d="m 41.681321,32.593423 c -1.410891,0 -1.431429,1.48428 -1.431429,1.89276 0,0.37468 0.05219,1.13728 0.428261,1.67175 0.229857,0.33408 0.637712,0.51172 1.128481,0.51172 1.212487,0 1.452894,-0.95084 1.452894,-1.99601 0,-0.42889 0,-2.07996 -1.577942,-2.07996 z m 2.560439,-0.6479 c -0.01019,0.20928 -0.02054,0.6683 -0.02054,0.85718 v 6.40659 h -0.992816 v -2.6032 c -0.08397,0.12467 -0.188516,0.29404 -0.428923,0.45088 -0.438613,0.30153 -0.940627,0.33395 -1.18067,0.33395 -1.274597,0 -2.393156,-0.89929 -2.393156,-2.84362 0,-1.93348 1.097359,-2.68589 2.205302,-2.68589 1.065973,0 1.556742,0.58549 1.786599,0.95085 l 0.03178,-0.86674 h 0.992816"
       style="fill:#005d7a;fill-opacity:1;fill-rule:nonzero;stroke:none;stroke-width:0.33072916;stroke-opacity:1"
       id="path32"
       inkscape:connector-curvature="0" />
    <path
       d="m 47.805367,31.945523 v 3.37512 c 0,0.51353 0.115127,1.16078 1.117501,1.16078 0.491596,0 0.95164,-0.16666 1.233388,-0.58537 0.220299,-0.31314 0.220299,-0.72166 0.220299,-0.98392 v -2.96701 h 1.012957 v 4.2641 c 0,0.10515 0.0212,0.69065 0.03178,0.98262 h -1.02397 l -0.02054,-0.8993 c -0.188482,0.36613 -0.544016,0.95149 -1.673159,0.95149 -1.295135,0 -1.901692,-0.74207 -1.901692,-1.77687 v -3.52164 h 1.003829"
       style="fill:#005d7a;fill-opacity:1;fill-rule:nonzero;stroke:none;stroke-width:0.33072916;stroke-opacity:1"
       id="path34"
       inkscape:connector-curvature="0" />
    <path
       d="m 56.698377,34.610863 c -0.396478,0 -1.891474,0 -1.891474,1.06661 0,0.33395 0.209418,0.9095 1.086479,0.9095 0.502047,0 0.877722,-0.20012 1.118162,-0.56586 0.219604,-0.35591 0.229956,-0.64725 0.250759,-1.37846 -0.177635,-0.0212 -0.323751,-0.0318 -0.563926,-0.0318 z m 0.679681,2.58098 c -0.07378,-0.26226 -0.09432,-0.51224 -0.09432,-0.78483 -0.470264,0.86816 -1.18067,0.95149 -1.619283,0.95149 -1.202101,0 -1.85,-0.6789 -1.85,-1.54706 0,-0.41678 0.145852,-1.08585 0.919064,-1.53633 0.564554,-0.31317 1.400307,-0.34432 1.818349,-0.34432 0.250626,0 0.408119,0.0103 0.710439,0.0311 0,-0.64724 0,-0.93031 -0.187854,-1.1595 -0.198438,-0.26095 -0.627096,-0.34571 -0.908844,-0.34571 -0.992849,0 -1.04517,0.68031 -1.05539,0.8887 H 54.12759 c 0.03178,-0.27117 0.06254,-0.63755 0.365489,-0.99219 0.397933,-0.43848 1.139328,-0.56455 1.693068,-0.56455 0.763654,0 1.57781,0.2412 1.860352,0.77334 0.166654,0.31313 0.177502,0.56379 0.177502,0.80357 l -0.042,2.50964 c 0,0.0833 0.01035,0.78343 0.08334,1.31622 h -0.887677"
       style="fill:#005d7a;fill-opacity:1;fill-rule:nonzero;stroke:none;stroke-width:0.33072916;stroke-opacity:1"
       id="path36"
       inkscape:connector-curvature="0" />
    <path
       d="m 60.073501,31.924983 h 0.930308 v -1.09736 l 0.971649,-0.31313 v 1.41089 h 1.171112 v 0.72089 h -1.171112 v 3.14593 c 0,0.26095 0,0.7002 0.700848,0.7002 0.199066,0 0.386292,-0.0311 0.470264,-0.0523 v 0.763 c -0.177502,0.0318 -0.460705,0.0625 -0.815214,0.0625 -0.899286,0 -1.327547,-0.26161 -1.327547,-1.1175 v -3.50184 h -0.930043 v -0.72089"
       style="fill:#005d7a;fill-opacity:1;fill-rule:nonzero;stroke:none;stroke-width:0.33072916;stroke-opacity:1"
       id="path38"
       inkscape:connector-curvature="0" />
    <path
       d="m 65.257284,31.945523 h 0.9821 v 5.24632 h -0.9821 z m -0.104775,-2.27777 h 1.180802 v 1.07616 h -1.180802 v -1.07616"
       style="fill:#005d7a;fill-opacity:1;fill-rule:nonzero;stroke:none;stroke-width:0.33072916;stroke-opacity:1"
       id="path40"
       inkscape:connector-curvature="0" />
    <path
       d="m 72.029129,33.628243 c -0.02084,-0.24044 -0.09426,-1.0967 -1.045766,-1.0967 -1.357974,0 -1.357974,1.57691 -1.357974,1.97481 0,1.07679 0.260946,2.08062 1.306711,2.08062 0.835091,0 1.117865,-0.62774 1.13837,-1.14012 h 0.992518 c -0.06185,1.02462 -0.824508,1.88064 -2.120966,1.88064 -0.355203,0 -1.169789,-0.0725 -1.724091,-0.67838 -0.313201,-0.36613 -0.627063,-0.91972 -0.627063,-2.0062 0,-2.18516 1.337469,-2.8324 2.382573,-2.8324 0.34462,0 1.128779,0.0731 1.609328,0.64724 0.386954,0.45012 0.418373,0.87852 0.438547,1.17115 h -0.992187"
       style="fill:#005d7a;fill-opacity:1;fill-rule:nonzero;stroke:none;stroke-width:0.33072916;stroke-opacity:1"
       id="path42"
       inkscape:connector-curvature="0" />
    <path
       d="m 79.156012,33.011493 c 0,-0.3553 -0.02117,-0.72168 -0.05193,-1.06597 h 0.992849 l 0.02017,1.01339 c 0.188515,-0.73059 0.815909,-0.97116 1.254456,-1.03433 0.292695,-0.042 0.512299,-0.0316 0.679648,-0.021 v 0.96169 c -0.05259,-0.0208 -0.115755,-0.0311 -0.188846,-0.0413 -0.07276,-0.0116 -0.166357,-0.0116 -0.281451,-0.0116 -1.160198,0 -1.431396,0.69 -1.431396,1.58919 v 2.79039 h -0.993509 v -4.18075"
       style="fill:#005d7a;fill-opacity:1;fill-rule:nonzero;stroke:none;stroke-width:0.33072916;stroke-opacity:1"
       id="path44"
       inkscape:connector-curvature="0" />
    <path
       d="m 87.421926,34.057163 c 0.01058,-0.50205 -0.08301,-1.54643 -1.295466,-1.54643 -0.637646,0 -1.411222,0.3863 -1.431396,1.54643 z m -2.769195,0.68858 c -0.02117,1.08843 0.428625,1.89278 1.504817,1.89278 0.637315,0 1.149284,-0.33396 1.23362,-1.08637 h 0.982266 c -0.03142,0.25956 -0.07342,0.68846 -0.449461,1.09657 -0.230518,0.26162 -0.752409,0.69957 -1.807766,0.69957 -1.651661,0 -2.435489,-1.02332 -2.435489,-2.68524 0,-1.03481 0.208359,-1.89276 1.03452,-2.46562 0.501717,-0.35642 1.128779,-0.38754 1.431727,-0.38754 2.351484,0 2.299229,2.07995 2.278393,2.93585 h -3.772627"
       style="fill:#005d7a;fill-opacity:1;fill-rule:nonzero;stroke:none;stroke-width:0.33072916;stroke-opacity:1"
       id="path46"
       inkscape:connector-curvature="0" />
    <path
       d="m 91.3199,35.635103 c -0.01025,0.39661 0.199099,0.95148 1.149945,0.95148 0.407459,0 0.710407,-0.0744 0.918766,-0.33602 0.105172,-0.13488 0.16768,-0.31316 0.16768,-0.49081 0,-0.5116 -0.366118,-0.60589 -1.149284,-0.7834 -1.09736,-0.25076 -2.016787,-0.47039 -2.016787,-1.56775 0,-0.9617 0.835753,-1.58853 2.047545,-1.58853 0.659143,0 1.578239,0.1872 1.892432,0.81532 0.135599,0.292 0.135599,0.54338 0.135599,0.76302 h -1.003102 c 0.03109,-0.79441 -0.658482,-0.85669 -1.013685,-0.85669 -0.146513,0 -1.06594,0 -1.06594,0.75241 0,0.47996 0.470297,0.59571 0.741826,0.66821 1.452562,0.34492 1.765763,0.42889 2.079294,0.72165 0.293026,0.27183 0.397537,0.63692 0.397537,0.97099 0,0.58563 -0.324115,1.08844 -0.711068,1.32822 -0.460044,0.28241 -1.013354,0.35515 -1.556742,0.35515 -1.06561,0 -2.05879,-0.43783 -2.048206,-1.70262 h 1.03419"
       style="fill:#005d7a;fill-opacity:1;fill-rule:nonzero;stroke:none;stroke-width:0.33072916;stroke-opacity:1"
       id="path48"
       inkscape:connector-curvature="0" />
    <path
       d="m 100.23404,34.057163 c 0.01,-0.50205 -0.0827,-1.54643 -1.295132,-1.54643 -0.638307,0 -1.411222,0.3863 -1.432057,1.54643 z m -2.769192,0.68858 c -0.02117,1.08843 0.428294,1.89278 1.504818,1.89278 0.637315,0 1.149284,-0.33396 1.233294,-1.08637 h 0.98193 c -0.0318,0.25956 -0.0731,0.68846 -0.44814,1.09657 -0.23052,0.26162 -0.752738,0.69957 -1.808756,0.69957 -1.651,0 -2.435159,-1.02332 -2.435159,-2.68524 0,-1.03481 0.209021,-1.89276 1.034851,-2.46562 0.501717,-0.35642 1.128448,-0.38754 1.432058,-0.38754 2.350496,0 2.298896,2.07995 2.278066,2.93585 h -3.772962"
       style="fill:#005d7a;fill-opacity:1;fill-rule:nonzero;stroke:none;stroke-width:0.33072916;stroke-opacity:1"
       id="path50"
       inkscape:connector-curvature="0" />
    <path
       d="m 106.08729,34.610863 c -0.3982,0 -1.89276,0 -1.89276,1.06661 0,0.33395 0.20935,0.9095 1.08843,0.9095 0.50138,0 0.87544,-0.20012 1.11753,-0.56586 0.21795,-0.35591 0.22986,-0.64725 0.25036,-1.37846 -0.1776,-0.0212 -0.32477,-0.0318 -0.56356,-0.0318 z m 0.67799,2.58098 c -0.0724,-0.26226 -0.0929,-0.51224 -0.0929,-0.78483 -0.47095,0.86816 -1.18136,0.95149 -1.61991,0.95149 -1.2022,0 -1.84944,-0.6789 -1.84944,-1.54706 0,-0.41678 0.14586,-1.08585 0.9191,-1.53633 0.56522,-0.31317 1.39965,-0.34432 1.81835,-0.34432 0.25202,0 0.40647,0.0103 0.71041,0.0311 0,-0.64724 0,-0.93031 -0.18852,-1.1595 -0.19811,-0.26095 -0.62706,-0.34571 -0.9095,-0.34571 -0.99318,0 -1.04511,0.68031 -1.05404,0.8887 h -0.98259 c 0.0311,-0.27117 0.0625,-0.63755 0.36479,-0.99219 0.3982,-0.43848 1.14035,-0.56455 1.69399,-0.56455 0.76134,0 1.57791,0.2412 1.86036,0.77334 0.16701,0.31313 0.17627,0.56379 0.17627,0.80357 l -0.0423,2.50964 c 0,0.0833 0.0126,0.78343 0.0843,1.31622 h -0.88833"
       style="fill:#005d7a;fill-opacity:1;fill-rule:nonzero;stroke:none;stroke-width:0.33072916;stroke-opacity:1"
       id="path52"
       inkscape:connector-curvature="0" />
    <path
       d="m 110.3193,33.011493 c 0,-0.3553 -0.0225,-0.72168 -0.0523,-1.06597 h 0.99285 l 0.0208,1.01339 c 0.18719,-0.73059 0.81492,-0.97116 1.25313,-1.03433 0.29237,-0.042 0.51329,-0.0316 0.67965,-0.021 v 0.96169 c -0.0519,-0.0208 -0.11443,-0.0311 -0.18885,-0.0413 -0.0728,-0.0116 -0.16735,-0.0116 -0.28178,-0.0116 -1.1592,0 -1.43205,0.69 -1.43205,1.58919 v 2.79039 h -0.99153 v -4.18075"
       style="fill:#005d7a;fill-opacity:1;fill-rule:nonzero;stroke:none;stroke-width:0.33072916;stroke-opacity:1"
       id="path54"
       inkscape:connector-curvature="0" />
    <path
       d="m 118.20851,33.628243 c -0.0208,-0.24044 -0.0936,-1.0967 -1.04378,-1.0967 -1.36029,0 -1.36029,1.57691 -1.36029,1.97481 0,1.07679 0.26161,2.08062 1.30638,2.08062 0.83609,0 1.11919,-0.62774 1.14036,-1.14012 h 0.99152 c -0.0625,1.02462 -0.82484,1.88064 -2.12063,1.88064 -0.35554,0 -1.16979,-0.0725 -1.72509,-0.67838 -0.31287,-0.36613 -0.62673,-0.91972 -0.62673,-2.0062 0,-2.18516 1.33879,-2.8324 2.38258,-2.8324 0.34561,0 1.1291,0.0731 1.60932,0.64724 0.38762,0.45012 0.41804,0.87852 0.43921,1.17115 h -0.99318"
       style="fill:#005d7a;fill-opacity:1;fill-rule:nonzero;stroke:none;stroke-width:0.33072916;stroke-opacity:1"
       id="path56"
       inkscape:connector-curvature="0" />
    <path
       d="m 120.8097,29.657533 h 0.99351 v 3.0612 c 0.32345,-0.55357 0.97201,-0.8675 1.70292,-0.8675 0.55464,0 1.34872,0.19906 1.65166,0.83638 0.10485,0.20942 0.17827,0.46004 0.17827,1.22277 v 3.28146 h -1.0041 v -3.10396 c 0,-0.47023 0,-1.48424 -1.12911,-1.48424 -0.7319,0 -1.09669,0.4488 -1.23229,0.70084 -0.16735,0.29263 -0.16735,0.7834 -0.16735,1.10729 v 2.78007 h -0.99351 v -7.53431"
       style="fill:#005d7a;fill-opacity:1;fill-rule:nonzero;stroke:none;stroke-width:0.33072916;stroke-opacity:1"
       id="path58"
       inkscape:connector-curvature="0" />
    <text
       id="text4549"
       y="49.382256"
       x="32.321636"
       style="font-style:normal;font-variant:normal;font-weight:normal;font-stretch:normal;font-size:6.3499999px;line-height:6.61458302px;font-family:Impact;-inkscape-font-specification:Impact;text-align:start;letter-spacing:0px;word-spacing:0px;writing-mode:lr-tb;text-anchor:start;fill:#000000;fill-opacity:1;stroke:none;stroke-width:0.26458332px;stroke-linecap:butt;stroke-linejoin:miter;stroke-opacity:1"
       xml:space="preserve"><tspan
         style="font-style:normal;font-variant:normal;font-weight:normal;font-stretch:normal;font-size:8.46666718px;font-family:Inconsolata;-inkscape-font-specification:Inconsolata;stroke-width:0.26458332px"
         y="49.382256"
         x="32.321636"
         id="tspan4547"
         sodipodi:role="line"><tspan
   id="tspan4663"
   style="font-style:normal;font-variant:normal;font-weight:bold;font-stretch:normal;font-size:8.46666718px;font-family:Inconsolata;-inkscape-font-specification:'Inconsolata Bold'">E</tspan>awag</tspan></text>
    <text
       id="text4553"
       y="49.382256"
       x="76.268257"
       style="font-style:normal;font-variant:normal;font-weight:normal;font-stretch:normal;font-size:6.3499999px;line-height:6.61458302px;font-family:Impact;-inkscape-font-specification:Impact;text-align:start;letter-spacing:0px;word-spacing:0px;writing-mode:lr-tb;text-anchor:start;fill:#000000;fill-opacity:1;stroke:none;stroke-width:0.26458332px;stroke-linecap:butt;stroke-linejoin:miter;stroke-opacity:1"
       xml:space="preserve"><tspan
         id="tspan4557"
         style="font-style:normal;font-variant:normal;font-weight:normal;font-stretch:normal;font-size:8.46666718px;font-family:Inconsolata;-inkscape-font-specification:Inconsolata;stroke-width:0.26458332px"
         y="49.382256"
         x="76.268257"
         sodipodi:role="line"><tspan
   id="tspan4667"
   style="font-style:normal;font-variant:normal;font-weight:bold;font-stretch:normal;font-size:8.46666718px;font-family:Inconsolata;-inkscape-font-specification:'Inconsolata Bold'">R</tspan>esearch Data</tspan><tspan
         id="tspan4555"
         style="font-style:normal;font-variant:normal;font-weight:normal;font-stretch:normal;font-size:8.46666718px;font-family:Inconsolata;-inkscape-font-specification:Inconsolata;stroke-width:0.26458332px"
         y="55.996838"
         x="76.268257"
         sodipodi:role="line" /></text>
    <text
       id="text4561"
       y="49.382256"
       x="153.51964"
       style="font-style:normal;font-variant:normal;font-weight:normal;font-stretch:normal;font-size:6.3499999px;line-height:6.61458302px;font-family:Impact;-inkscape-font-specification:Impact;text-align:start;letter-spacing:0px;word-spacing:0px;writing-mode:lr-tb;text-anchor:start;fill:#000000;fill-opacity:1;stroke:none;stroke-width:0.26458332px;stroke-linecap:butt;stroke-linejoin:miter;stroke-opacity:1"
       xml:space="preserve"><tspan
         style="font-style:normal;font-variant:normal;font-weight:normal;font-stretch:normal;font-size:8.46666718px;font-family:Inconsolata;-inkscape-font-specification:Inconsolata;stroke-width:0.26458332px"
         y="49.382256"
         x="153.51964"
         id="tspan4559"
         sodipodi:role="line"><tspan
   id="tspan4665"
   style="font-style:normal;font-variant:normal;font-weight:bold;font-stretch:normal;font-size:8.46666718px;font-family:Inconsolata;-inkscape-font-specification:'Inconsolata Bold'">I</tspan>nstitutional</tspan></text>
    <text
       id="text4565"
       y="49.382256"
       x="221.23923"
       style="font-style:normal;font-variant:normal;font-weight:normal;font-stretch:normal;font-size:6.3499999px;line-height:6.61458302px;font-family:Impact;-inkscape-font-specification:Impact;text-align:start;letter-spacing:0px;word-spacing:0px;writing-mode:lr-tb;text-anchor:start;fill:#000000;fill-opacity:1;stroke:none;stroke-width:0.26458332px;stroke-linecap:butt;stroke-linejoin:miter;stroke-opacity:1"
       xml:space="preserve"><tspan
         style="font-style:normal;font-variant:normal;font-weight:normal;font-stretch:normal;font-size:8.46666718px;font-family:Inconsolata;-inkscape-font-specification:Inconsolata;stroke-width:0.26458332px"
         y="49.382256"
         x="221.23923"
         id="tspan4563"
         sodipodi:role="line"><tspan
   id="tspan4669"
   style="font-style:normal;font-variant:normal;font-weight:bold;font-stretch:normal;font-size:8.46666718px;font-family:Inconsolata;-inkscape-font-specification:'Inconsolata Bold'">C</tspan>ollection</tspan></text>
  </g>
</svg>
