<?xml version="1.0" encoding="UTF-8" standalone="no"?>
<!-- Created with Inkscape (http://www.inkscape.org/) -->

<svg
   xmlns:dc="http://purl.org/dc/elements/1.1/"
   xmlns:cc="http://creativecommons.org/ns#"
   xmlns:rdf="http://www.w3.org/1999/02/22-rdf-syntax-ns#"
   xmlns:svg="http://www.w3.org/2000/svg"
   xmlns="http://www.w3.org/2000/svg"
   xmlns:sodipodi="http://sodipodi.sourceforge.net/DTD/sodipodi-0.dtd"
   xmlns:inkscape="http://www.inkscape.org/namespaces/inkscape"
   version="1.1"
   id="svg2"
   xml:space="preserve"
   width="2048"
   height="1536"
   viewBox="0 0 2048 1536"
   sodipodi:docname="timeseries.svg"
   inkscape:version="0.92.1 r15371"><metadata
     id="metadata8"><rdf:RDF><cc:Work
         rdf:about=""><dc:format>image/svg+xml</dc:format><dc:type
           rdf:resource="http://purl.org/dc/dcmitype/StillImage" /><dc:title></dc:title></cc:Work></rdf:RDF></metadata><defs
     id="defs6"><clipPath
       clipPathUnits="userSpaceOnUse"
       id="clipPath42"><path
         d="M 0,0 H 951.75 V 639.49 H 0 Z"
         id="path40"
         inkscape:connector-curvature="0" /></clipPath><clipPath
       clipPathUnits="userSpaceOnUse"
       id="clipPath54"><path
         d="M 69.12,47.48 H 946.27 V 606.13 H 69.12 Z"
         id="path52"
         inkscape:connector-curvature="0" /></clipPath></defs><sodipodi:namedview
     pagecolor="#ffffff"
     bordercolor="#666666"
     borderopacity="1"
     objecttolerance="10"
     gridtolerance="10"
     guidetolerance="10"
     inkscape:pageopacity="0"
     inkscape:pageshadow="2"
     inkscape:window-width="1868"
     inkscape:window-height="1171"
     id="namedview4"
     showgrid="false"
     inkscape:zoom="0.45192815"
     inkscape:cx="1167.168"
     inkscape:cy="807.09239"
     inkscape:window-x="1920"
     inkscape:window-y="0"
     inkscape:window-maximized="1"
     inkscape:current-layer="g4809" /><g
     id="g10"
     inkscape:groupmode="layer"
     inkscape:label="timeseries"
     transform="matrix(1.3333333,0,0,-1.3333333,0,1536)"><g
       id="g12" /><g
       id="g14" /><g
       id="g16" /><g
       id="g18" /><g
       id="g20" /><g
       id="g22" /><g
       id="g24" /><g
       id="g26" /><g
       id="g28" /><g
       id="g30" /><g
       id="g32" /><g
       id="g34" /><g
       id="g46" /><g
       id="g102" /><g
       id="g104" /><g
       id="g106" /><g
       id="g108" /><g
       id="g110" /><g
       id="g112" /><g
       id="g114" /><g
       id="g116" /><g
       id="g118" /><g
       id="g120" /><g
       id="g122" /><g
       id="g124" /><g
       id="g126" /><g
       id="g128" /><g
       id="g130" /><g
       id="g154" /><g
       id="g168" /><g
       id="g170" /><g
       id="g172" /><g
       id="g174" /><g
       id="g176" /><g
       id="g178" /><g
       id="g180" /><g
       id="g182" /><g
       id="g184" /><g
       id="g198" /><g
       id="g222" /><g
       id="g224" /><g
       id="g226" /><g
       id="g228" /><g
       id="g230" /><g
       id="g232" /><g
       id="g234" /><g
       id="g242" /><g
       id="g244" /><g
       id="g246" /><g
       id="g248" /><g
       id="g250" /><g
       id="g4809"
       transform="matrix(1.5579805,0,0,1.5579805,23.233782,66.591061)"><g
         id="g36"><g
           clip-path="url(#clipPath42)"
           id="g38"><path
             inkscape:connector-curvature="0"
             id="path44"
             style="fill:#ffffff;fill-opacity:1;fill-rule:nonzero;stroke:#ffffff;stroke-width:1.07000005;stroke-linecap:round;stroke-linejoin:round;stroke-miterlimit:10;stroke-dasharray:none;stroke-opacity:1"
             d="M 0,0 H 951.75 V 639.49 H 0 Z" /></g></g><g
         id="g48"><g
           clip-path="url(#clipPath54)"
           id="g50"><path
             inkscape:connector-curvature="0"
             id="path56"
             style="fill:#7f7f7f;fill-opacity:1;fill-rule:nonzero;stroke:none"
             d="M 69.12,47.48 H 946.27 V 606.13 H 69.12 Z" /><path
             inkscape:connector-curvature="0"
             id="path58"
             style="fill:none;stroke:#6b6b6b;stroke-width:0.27000001;stroke-linecap:butt;stroke-linejoin:round;stroke-miterlimit:10;stroke-dasharray:none;stroke-opacity:1"
             d="M 69.12,126.33 H 946.27" /><path
             inkscape:connector-curvature="0"
             id="path60"
             style="fill:none;stroke:#6b6b6b;stroke-width:0.27000001;stroke-linecap:butt;stroke-linejoin:round;stroke-miterlimit:10;stroke-dasharray:none;stroke-opacity:1"
             d="M 69.12,237.71 H 946.27" /><path
             inkscape:connector-curvature="0"
             id="path62"
             style="fill:none;stroke:#6b6b6b;stroke-width:0.27000001;stroke-linecap:butt;stroke-linejoin:round;stroke-miterlimit:10;stroke-dasharray:none;stroke-opacity:1"
             d="M 69.12,349.08 H 946.27" /><path
             inkscape:connector-curvature="0"
             id="path64"
             style="fill:none;stroke:#6b6b6b;stroke-width:0.27000001;stroke-linecap:butt;stroke-linejoin:round;stroke-miterlimit:10;stroke-dasharray:none;stroke-opacity:1"
             d="M 69.12,460.45 H 946.27" /><path
             inkscape:connector-curvature="0"
             id="path66"
             style="fill:none;stroke:#6b6b6b;stroke-width:0.27000001;stroke-linecap:butt;stroke-linejoin:round;stroke-miterlimit:10;stroke-dasharray:none;stroke-opacity:1"
             d="M 69.12,571.83 H 946.27" /><path
             inkscape:connector-curvature="0"
             id="path68"
             style="fill:none;stroke:#6b6b6b;stroke-width:0.27000001;stroke-linecap:butt;stroke-linejoin:round;stroke-miterlimit:10;stroke-dasharray:none;stroke-opacity:1"
             d="M 102.09,47.48 V 606.13" /><path
             inkscape:connector-curvature="0"
             id="path70"
             style="fill:none;stroke:#6b6b6b;stroke-width:0.27000001;stroke-linecap:butt;stroke-linejoin:round;stroke-miterlimit:10;stroke-dasharray:none;stroke-opacity:1"
             d="M 257.43,47.48 V 606.13" /><path
             inkscape:connector-curvature="0"
             id="path72"
             style="fill:none;stroke:#6b6b6b;stroke-width:0.27000001;stroke-linecap:butt;stroke-linejoin:round;stroke-miterlimit:10;stroke-dasharray:none;stroke-opacity:1"
             d="M 413.63,47.48 V 606.13" /><path
             inkscape:connector-curvature="0"
             id="path74"
             style="fill:none;stroke:#6b6b6b;stroke-width:0.27000001;stroke-linecap:butt;stroke-linejoin:round;stroke-miterlimit:10;stroke-dasharray:none;stroke-opacity:1"
             d="M 571.56,47.48 V 606.13" /><path
             inkscape:connector-curvature="0"
             id="path76"
             style="fill:none;stroke:#6b6b6b;stroke-width:0.27000001;stroke-linecap:butt;stroke-linejoin:round;stroke-miterlimit:10;stroke-dasharray:none;stroke-opacity:1"
             d="M 730.35,47.48 V 606.13" /><path
             inkscape:connector-curvature="0"
             id="path78"
             style="fill:none;stroke:#6b6b6b;stroke-width:0.27000001;stroke-linecap:butt;stroke-linejoin:round;stroke-miterlimit:10;stroke-dasharray:none;stroke-opacity:1"
             d="M 887.41,47.48 V 606.13" /><path
             inkscape:connector-curvature="0"
             id="path80"
             style="fill:none;stroke:#6b6b6b;stroke-width:0.52999997;stroke-linecap:butt;stroke-linejoin:round;stroke-miterlimit:10;stroke-dasharray:none;stroke-opacity:1"
             d="M 69.12,70.65 H 946.27" /><path
             inkscape:connector-curvature="0"
             id="path82"
             style="fill:none;stroke:#6b6b6b;stroke-width:0.52999997;stroke-linecap:butt;stroke-linejoin:round;stroke-miterlimit:10;stroke-dasharray:none;stroke-opacity:1"
             d="M 69.12,182.02 H 946.27" /><path
             inkscape:connector-curvature="0"
             id="path84"
             style="fill:none;stroke:#6b6b6b;stroke-width:0.52999997;stroke-linecap:butt;stroke-linejoin:round;stroke-miterlimit:10;stroke-dasharray:none;stroke-opacity:1"
             d="M 69.12,293.39 H 946.27" /><path
             inkscape:connector-curvature="0"
             id="path86"
             style="fill:none;stroke:#6b6b6b;stroke-width:0.52999997;stroke-linecap:butt;stroke-linejoin:round;stroke-miterlimit:10;stroke-dasharray:none;stroke-opacity:1"
             d="M 69.12,404.77 H 946.27" /><path
             inkscape:connector-curvature="0"
             id="path88"
             style="fill:none;stroke:#6b6b6b;stroke-width:0.52999997;stroke-linecap:butt;stroke-linejoin:round;stroke-miterlimit:10;stroke-dasharray:none;stroke-opacity:1"
             d="M 69.12,516.14 H 946.27" /><path
             inkscape:connector-curvature="0"
             id="path90"
             style="fill:none;stroke:#6b6b6b;stroke-width:0.52999997;stroke-linecap:butt;stroke-linejoin:round;stroke-miterlimit:10;stroke-dasharray:none;stroke-opacity:1"
             d="M 179.76,47.48 V 606.13" /><path
             inkscape:connector-curvature="0"
             id="path92"
             style="fill:none;stroke:#6b6b6b;stroke-width:0.52999997;stroke-linecap:butt;stroke-linejoin:round;stroke-miterlimit:10;stroke-dasharray:none;stroke-opacity:1"
             d="M 335.1,47.48 V 606.13" /><path
             inkscape:connector-curvature="0"
             id="path94"
             style="fill:none;stroke:#6b6b6b;stroke-width:0.52999997;stroke-linecap:butt;stroke-linejoin:round;stroke-miterlimit:10;stroke-dasharray:none;stroke-opacity:1"
             d="M 492.16,47.48 V 606.13" /><path
             inkscape:connector-curvature="0"
             id="path96"
             style="fill:none;stroke:#6b6b6b;stroke-width:0.52999997;stroke-linecap:butt;stroke-linejoin:round;stroke-miterlimit:10;stroke-dasharray:none;stroke-opacity:1"
             d="M 650.95,47.48 V 606.13" /><path
             inkscape:connector-curvature="0"
             id="path98"
             style="fill:none;stroke:#6b6b6b;stroke-width:0.52999997;stroke-linecap:butt;stroke-linejoin:round;stroke-miterlimit:10;stroke-dasharray:none;stroke-opacity:1"
             d="M 809.74,47.48 V 606.13" /><path
             inkscape:connector-curvature="0"
             id="path100"
             style="fill:none;stroke:#ffc0cb;stroke-width:8.53999996;stroke-linecap:butt;stroke-linejoin:round;stroke-miterlimit:1;stroke-dasharray:none;stroke-opacity:1"
             d="m 108.99,72.88 v 2.22 2.23 2.23 2.23 2.22 2.23 2.23 2.23 2.22 2.23 2.23 2.22 2.23 2.23 2.23 2.22 2.23 2.23 2.23 2.22 2.23 2.23 2.23 2.22 2.23 2.23 2.23 2.22 2.23 2.23 l 8.63,2.23 v 2.22 l 3.45,2.23 v 2.23 2.23 2.22 l 1.73,2.23 v 2.23 2.23 2.22 2.23 2.23 2.23 l 6.9,2.22 v 2.23 2.23 2.23 2.22 2.23 2.23 l 1.73,2.23 v 2.22 2.23 2.23 2.23 2.22 2.23 2.23 2.23 2.22 l 1.73,2.23 v 2.23 2.23 2.22 l 8.63,2.23 v 2.23 2.23 2.22 2.23 2.23 2.22 2.23 2.23 2.23 l 1.72,2.22 1.73,2.23 8.63,2.23 5.18,2.23 25.89,2.22 5.17,2.23 13.81,2.23 v 2.23 2.22 2.23 l 1.73,2.23 32.79,2.23 5.18,2.22 24.16,2.23 v 2.23 l 8.63,2.23 1.73,2.22 v 2.23 2.23 2.23 2.22 2.23 2.23 2.23 2.22 2.23 2.23 2.23 2.22 2.23 2.23 2.23 2.22 2.23 2.23 2.23 2.22 2.23 2.23 2.23 2.22 2.23 2.23 2.23 2.22 2.23 2.23 2.23 2.22 2.23 2.23 2.22 2.23 l 3.45,2.23 5.18,2.23 v 2.22 2.23 2.23 2.23 2.22 2.23 2.23 2.23 2.22 2.23 2.23 l 6.9,2.23 1.73,2.22 v 2.23 2.23 2.23 2.22 2.23 2.23 2.23 2.22 l 8.63,2.23 8.63,2.23 3.45,2.23 8.63,2.22 37.97,2.23 10.36,2.23 3.45,2.23 v 2.22 l 1.73,2.23 v 2.23 l 18.98,2.23 v 2.22 l 3.46,2.23 6.9,2.23 24.16,2.23 1.73,2.22 1.72,2.23 13.81,2.23 1.73,2.23 6.9,2.22 12.08,2.23 13.81,2.23 24.17,2.23 12.08,2.22 v 2.23 2.23 2.23 2.22 l 15.53,2.23 32.8,2.23 8.63,2.23 v 2.22 2.23 2.23 2.22 l 27.61,2.23 20.71,2.23 5.18,2.23 8.63,2.22 3.45,2.23 13.81,2.23 6.91,2.23 1.72,2.22 10.36,2.23 1.72,2.23 10.36,2.23 34.52,2.22 1.73,2.23 v 2.23 l 13.8,2.23 12.09,2.22 1.72,2.23 v 2.23 2.23 l 6.91,2.22 6.9,2.23 v 2.23 l 6.9,2.23 1.73,2.22 v 2.23 2.23 2.23 l 8.63,2.22 1.72,2.23 3.46,2.23 v 2.23 l 34.52,2.22 1.72,2.23 13.81,2.23 5.18,2.23 1.72,2.22 6.91,2.23 18.98,2.23 12.09,2.23 13.8,2.22 v 2.23 l 6.91,2.23 3.45,2.23" /></g></g><g
         id="g132"><text
           id="text136"
           style="font-variant:normal;font-weight:normal;font-size:20px;font-family:Helvetica;-inkscape-font-specification:Helvetica;writing-mode:lr-tb;fill:#4d4d4d;fill-opacity:1;fill-rule:nonzero;stroke:none"
           transform="matrix(1,0,0,-1,53.07,63.47)"><tspan
             id="tspan134"
             y="0"
             x="0">0</tspan></text>
<text
           id="text140"
           style="font-variant:normal;font-weight:normal;font-size:20px;font-family:Helvetica;-inkscape-font-specification:Helvetica;writing-mode:lr-tb;fill:#4d4d4d;fill-opacity:1;fill-rule:nonzero;stroke:none"
           transform="matrix(1,0,0,-1,41.95,174.84)"><tspan
             id="tspan138"
             sodipodi:role="line"
             y="0"
             x="0 11.12">50</tspan></text>
<text
           id="text144"
           style="font-variant:normal;font-weight:normal;font-size:20px;font-family:Helvetica;-inkscape-font-specification:Helvetica;writing-mode:lr-tb;fill:#4d4d4d;fill-opacity:1;fill-rule:nonzero;stroke:none"
           transform="matrix(1,0,0,-1,30.83,286.21)"><tspan
             id="tspan142"
             sodipodi:role="line"
             y="0"
             x="0 11.12 22.24">100</tspan></text>
<text
           id="text148"
           style="font-variant:normal;font-weight:normal;font-size:20px;font-family:Helvetica;-inkscape-font-specification:Helvetica;writing-mode:lr-tb;fill:#4d4d4d;fill-opacity:1;fill-rule:nonzero;stroke:none"
           transform="matrix(1,0,0,-1,30.83,397.59)"><tspan
             id="tspan146"
             sodipodi:role="line"
             y="0"
             x="0 11.12 22.24">150</tspan></text>
<text
           id="text152"
           style="font-variant:normal;font-weight:normal;font-size:20px;font-family:Helvetica;-inkscape-font-specification:Helvetica;writing-mode:lr-tb;fill:#4d4d4d;fill-opacity:1;fill-rule:nonzero;stroke:none"
           transform="matrix(1,0,0,-1,30.83,508.96)"><tspan
             id="tspan150"
             sodipodi:role="line"
             y="0"
             x="0 11.12 22.24">200</tspan></text>
</g><g
         id="g156"><path
           inkscape:connector-curvature="0"
           id="path158"
           style="fill:none;stroke:#333333;stroke-width:0.52999997;stroke-linecap:butt;stroke-linejoin:round;stroke-miterlimit:10;stroke-dasharray:none;stroke-opacity:1"
           d="m 66.38,70.65 h 2.74" /><path
           inkscape:connector-curvature="0"
           id="path160"
           style="fill:none;stroke:#333333;stroke-width:0.52999997;stroke-linecap:butt;stroke-linejoin:round;stroke-miterlimit:10;stroke-dasharray:none;stroke-opacity:1"
           d="m 66.38,182.02 h 2.74" /><path
           inkscape:connector-curvature="0"
           id="path162"
           style="fill:none;stroke:#333333;stroke-width:0.52999997;stroke-linecap:butt;stroke-linejoin:round;stroke-miterlimit:10;stroke-dasharray:none;stroke-opacity:1"
           d="m 66.38,293.39 h 2.74" /><path
           inkscape:connector-curvature="0"
           id="path164"
           style="fill:none;stroke:#333333;stroke-width:0.52999997;stroke-linecap:butt;stroke-linejoin:round;stroke-miterlimit:10;stroke-dasharray:none;stroke-opacity:1"
           d="m 66.38,404.77 h 2.74" /><path
           inkscape:connector-curvature="0"
           id="path166"
           style="fill:none;stroke:#333333;stroke-width:0.52999997;stroke-linecap:butt;stroke-linejoin:round;stroke-miterlimit:10;stroke-dasharray:none;stroke-opacity:1"
           d="m 66.38,516.14 h 2.74" /></g><g
         id="g186"><path
           inkscape:connector-curvature="0"
           id="path188"
           style="fill:none;stroke:#333333;stroke-width:0.52999997;stroke-linecap:butt;stroke-linejoin:round;stroke-miterlimit:10;stroke-dasharray:none;stroke-opacity:1"
           d="m 179.76,44.74 v 2.74" /><path
           inkscape:connector-curvature="0"
           id="path190"
           style="fill:none;stroke:#333333;stroke-width:0.52999997;stroke-linecap:butt;stroke-linejoin:round;stroke-miterlimit:10;stroke-dasharray:none;stroke-opacity:1"
           d="m 335.1,44.74 v 2.74" /><path
           inkscape:connector-curvature="0"
           id="path192"
           style="fill:none;stroke:#333333;stroke-width:0.52999997;stroke-linecap:butt;stroke-linejoin:round;stroke-miterlimit:10;stroke-dasharray:none;stroke-opacity:1"
           d="m 492.16,44.74 v 2.74" /><path
           inkscape:connector-curvature="0"
           id="path194"
           style="fill:none;stroke:#333333;stroke-width:0.52999997;stroke-linecap:butt;stroke-linejoin:round;stroke-miterlimit:10;stroke-dasharray:none;stroke-opacity:1"
           d="m 650.95,44.74 v 2.74" /><path
           inkscape:connector-curvature="0"
           id="path196"
           style="fill:none;stroke:#333333;stroke-width:0.52999997;stroke-linecap:butt;stroke-linejoin:round;stroke-miterlimit:10;stroke-dasharray:none;stroke-opacity:1"
           d="m 809.74,44.74 v 2.74" /></g><g
         id="g200"><text
           id="text204"
           style="font-variant:normal;font-weight:normal;font-size:20px;font-family:Helvetica;-inkscape-font-specification:Helvetica;writing-mode:lr-tb;fill:#4d4d4d;fill-opacity:1;fill-rule:nonzero;stroke:none"
           transform="matrix(1,0,0,-1,138.82,28.19)"><tspan
             id="tspan202"
             sodipodi:role="line"
             y="0"
             x="0 9.6000004 20.719999 31.84 37.400002 48.52 59.639999 70.760002">Jan 2019</tspan></text>
<text
           id="text208"
           style="font-variant:normal;font-weight:normal;font-size:20px;font-family:Helvetica;-inkscape-font-specification:Helvetica;writing-mode:lr-tb;fill:#4d4d4d;fill-opacity:1;fill-rule:nonzero;stroke:none"
           transform="matrix(1,0,0,-1,294.52,28.19)"><tspan
             id="tspan206"
             sodipodi:role="line"
             y="0"
             x="0 13.34 24.459999 31.120001 36.68 47.799999 58.919998 70.040001">Apr 2019</tspan></text>
<text
           id="text212"
           style="font-variant:normal;font-weight:normal;font-size:20px;font-family:Helvetica;-inkscape-font-specification:Helvetica;writing-mode:lr-tb;fill:#4d4d4d;fill-opacity:1;fill-rule:nonzero;stroke:none"
           transform="matrix(1,0,0,-1,454.56,28.19)"><tspan
             id="tspan210"
             sodipodi:role="line"
             y="0"
             x="0 9.6000004 20.719999 25.16 30.719999 41.84 52.959999 64.080002">Jul 2019</tspan></text>
<text
           id="text216"
           style="font-variant:normal;font-weight:normal;font-size:20px;font-family:Helvetica;-inkscape-font-specification:Helvetica;writing-mode:lr-tb;fill:#4d4d4d;fill-opacity:1;fill-rule:nonzero;stroke:none"
           transform="matrix(1,0,0,-1,610.37,28.19)"><tspan
             id="tspan214"
             sodipodi:role="line"
             y="0"
             x="0 15.56 25.559999 31.120001 36.68 47.799999 58.919998 70.040001">Oct 2019</tspan></text>
<text
           id="text220"
           style="font-variant:normal;font-weight:normal;font-size:20px;font-family:Helvetica;-inkscape-font-specification:Helvetica;writing-mode:lr-tb;fill:#4d4d4d;fill-opacity:1;fill-rule:nonzero;stroke:none"
           transform="matrix(1,0,0,-1,768.8,28.19)"><tspan
             id="tspan218"
             sodipodi:role="line"
             y="0"
             x="0 9.6000004 20.719999 31.84 37.400002 48.52 59.639999 70.760002">Jan 2020</tspan></text>
</g><g
         id="g236"
         transform="translate(-4.2607873,-1.0651968)"><text
           id="text240"
           style="font-style:normal;font-variant:normal;font-weight:bold;font-stretch:normal;font-size:24px;font-family:sans-serif;-inkscape-font-specification:'sans-serif Bold';writing-mode:lr-tb;fill:#000000;fill-opacity:1;fill-rule:nonzero;stroke:none"
           transform="matrix(0,1,1,0,22.71,262.34)"><tspan
             id="tspan238"
             sodipodi:role="line"
             y="0"
             x="0 13.344 20.016001 34.68 48.023998 60.888 74.232002 87.335999 102.24 115.584"
             style="font-size:23.10683632px"># packages</tspan></text>
</g><g
         id="g252"
         transform="matrix(1.1623855,0,0,1.1623855,-7.3460111,-72.199143)"><text
           id="text256"
           style="font-variant:normal;font-weight:bold;font-size:26px;font-family:Helvetica;-inkscape-font-specification:Helvetica-Bold;writing-mode:lr-tb;fill:#0000ff;fill-opacity:1;fill-rule:nonzero;stroke:none"
           transform="matrix(1,0,0,-1,69.12,615.34)"><tspan
             id="tspan254"
             sodipodi:role="line"
             y="0"
             x="0 16.562 31.018 44.953999 59.41 73.606003 89.751999 104.208 111.436 127.322 143.20799 150.436 166.32201 180.778 196.664 211.12 218.34801 227.006 242.892 250.12 267.46201 286.23401 293.46201"
             style="font-style:normal;font-variant:normal;font-weight:bold;font-stretch:normal;font-size:25.674263px;font-family:sans-serif;-inkscape-font-specification:'sans-serif Bold'">Package uploads to ERIC</tspan></text>
</g></g><g
       id="g258" /><g
       id="g260" /><g
       id="g262" /><g
       id="g264" /></g></svg>