<?xml version="1.0" encoding="UTF-8" standalone="no"?>
<svg
   xmlns:dc="http://purl.org/dc/elements/1.1/"
   xmlns:cc="http://creativecommons.org/ns#"
   xmlns:rdf="http://www.w3.org/1999/02/22-rdf-syntax-ns#"
   xmlns:svg="http://www.w3.org/2000/svg"
   xmlns="http://www.w3.org/2000/svg"
   viewBox="0 0 2048 1536"
   height="1536"
   width="2048"
   xml:space="preserve"
   id="svg2"
   version="1.1"><metadata
     id="metadata8"><rdf:RDF><cc:Work
         rdf:about=""><dc:format>image/svg+xml</dc:format><dc:type
           rdf:resource="http://purl.org/dc/dcmitype/StillImage" /><dc:title></dc:title></cc:Work></rdf:RDF></metadata><defs
     id="defs6"><marker
       style="overflow:visible;"
       id="Arrow2Mend"
       refX="0.0"
       refY="0.0"
       orient="auto"><path
         transform="scale(0.6) rotate(180) translate(0,0)"
         d="M 8.7185878,4.0337352 L -2.2072895,0.016013256 L 8.7185884,-4.0017078 C 6.9730900,-1.6296469 6.9831476,1.6157441 8.7185878,4.0337352 z "
         style="fill-rule:evenodd;stroke-width:0.625;stroke-linejoin:round;stroke:#ff7901;stroke-opacity:1;fill:#ff7901;fill-opacity:1"
         id="path4859" /></marker><marker
       style="overflow:visible;"
       id="Arrow2Lend"
       refX="0.0"
       refY="0.0"
       orient="auto"><path
         transform="scale(1.1) rotate(180) translate(1,0)"
         d="M 8.7185878,4.0337352 L -2.2072895,0.016013256 L 8.7185884,-4.0017078 C 6.9730900,-1.6296469 6.9831476,1.6157441 8.7185878,4.0337352 z "
         style="fill-rule:evenodd;stroke-width:0.625;stroke-linejoin:round;stroke:#ff7901;stroke-opacity:1;fill:#ff7901;fill-opacity:1"
         id="path4853" /></marker><marker
       style="overflow:visible;"
       id="marker5144"
       refX="0.0"
       refY="0.0"
       orient="auto"><path
         transform="scale(0.8) rotate(180) translate(12.5,0)"
         style="fill-rule:evenodd;stroke:#ff7901;stroke-width:1pt;stroke-opacity:1;fill:#ff7901;fill-opacity:1"
         d="M 0.0,0.0 L 5.0,-5.0 L -12.5,0.0 L 5.0,5.0 L 0.0,0.0 z "
         id="path5142" /></marker><marker
       style="overflow:visible;"
       id="marker5116"
       refX="0.0"
       refY="0.0"
       orient="auto"><path
         transform="scale(0.8) rotate(180) translate(12.5,0)"
         style="fill-rule:evenodd;stroke:#ff7901;stroke-width:1pt;stroke-opacity:1;fill:#ff7901;fill-opacity:1"
         d="M 0.0,0.0 L 5.0,-5.0 L -12.5,0.0 L 5.0,5.0 L 0.0,0.0 z "
         id="path5114" /></marker><marker
       style="overflow:visible;"
       id="Arrow1Lend"
       refX="0.0"
       refY="0.0"
       orient="auto"><path
         transform="scale(0.8) rotate(180) translate(12.5,0)"
         style="fill-rule:evenodd;stroke:#ff7901;stroke-width:1pt;stroke-opacity:1;fill:#ff7901;fill-opacity:1"
         d="M 0.0,0.0 L 5.0,-5.0 L -12.5,0.0 L 5.0,5.0 L 0.0,0.0 z "
         id="path4835" /></marker><clipPath
       id="clipPath42"
       clipPathUnits="userSpaceOnUse"><path
         id="path40"
         d="M 0,0 H 951.75 V 639.49 H 0 Z" /></clipPath><clipPath
       id="clipPath54"
       clipPathUnits="userSpaceOnUse"><path
         id="path52"
         d="M 69.12,47.48 H 946.27 V 606.13 H 69.12 Z" /></clipPath><marker
       style="overflow:visible"
       id="Arrow2Mend-4"
       refX="0"
       refY="0"
       orient="auto"><path
         transform="scale(-0.6)"
         d="M 8.7185878,4.0337352 -2.2072895,0.01601326 8.7185884,-4.0017078 c -1.7454984,2.3720609 -1.7354408,5.6174519 -6e-7,8.035443 z"
         style="fill:#ff7901;fill-opacity:1;fill-rule:evenodd;stroke:#ff7901;stroke-width:0.625;stroke-linejoin:round;stroke-opacity:1"
         id="path4859-3" /></marker></defs><g
     transform="matrix(1.3333333,0,0,-1.3333333,0,1536)"
     id="g10"><g
       id="g12" /><g
       id="g14" /><g
       id="g16" /><g
       id="g18" /><g
       id="g20" /><g
       id="g22" /><g
       id="g24" /><g
       id="g26" /><g
       id="g28" /><g
       id="g30" /><g
       id="g32" /><g
       id="g34" /><g
       id="g46" /><g
       id="g102" /><g
       id="g104" /><g
       id="g106" /><g
       id="g108" /><g
       id="g110" /><g
       id="g112" /><g
       id="g114" /><g
       id="g116" /><g
       id="g118" /><g
       id="g120" /><g
       id="g122" /><g
       id="g124" /><g
       id="g126" /><g
       id="g128" /><g
       id="g130" /><g
       id="g154" /><g
       id="g168" /><g
       id="g170" /><g
       id="g172" /><g
       id="g174" /><g
       id="g176" /><g
       id="g178" /><g
       id="g180" /><g
       id="g182" /><g
       id="g184" /><g
       id="g198" /><g
       id="g222" /><g
       id="g224" /><g
       id="g226" /><g
       id="g228" /><g
       id="g230" /><g
       id="g232" /><g
       id="g234" /><g
       id="g242" /><g
       id="g244" /><g
       id="g246" /><g
       id="g248" /><g
       id="g250" /><g
       transform="matrix(1.5579805,0,0,1.5579805,23.233782,66.591061)"
       id="g4809"><g
         id="g36"><g
           id="g38"
           clip-path="url(#clipPath42)"><path
             d="M 0,0 H 951.75 V 639.49 H 0 Z"
             style="fill:#ffffff;fill-opacity:1;fill-rule:nonzero;stroke:#ffffff;stroke-width:1.07000005;stroke-linecap:round;stroke-linejoin:round;stroke-miterlimit:10;stroke-dasharray:none;stroke-opacity:1"
             id="path44" /></g></g><g
         id="g48"><g
           id="g50"
           clip-path="url(#clipPath54)"><path
             d="M 69.12,47.48 H 946.27 V 606.13 H 69.12 Z"
             style="fill:#7f7f7f;fill-opacity:1;fill-rule:nonzero;stroke:none"
             id="path56" /><path
             d="M 69.12,126.33 H 946.27"
             style="fill:none;stroke:#6b6b6b;stroke-width:0.27000001;stroke-linecap:butt;stroke-linejoin:round;stroke-miterlimit:10;stroke-dasharray:none;stroke-opacity:1"
             id="path58" /><path
             d="M 69.12,237.71 H 946.27"
             style="fill:none;stroke:#6b6b6b;stroke-width:0.27000001;stroke-linecap:butt;stroke-linejoin:round;stroke-miterlimit:10;stroke-dasharray:none;stroke-opacity:1"
             id="path60" /><path
             d="M 69.12,349.08 H 946.27"
             style="fill:none;stroke:#6b6b6b;stroke-width:0.27000001;stroke-linecap:butt;stroke-linejoin:round;stroke-miterlimit:10;stroke-dasharray:none;stroke-opacity:1"
             id="path62" /><path
             d="M 69.12,460.45 H 946.27"
             style="fill:none;stroke:#6b6b6b;stroke-width:0.27000001;stroke-linecap:butt;stroke-linejoin:round;stroke-miterlimit:10;stroke-dasharray:none;stroke-opacity:1"
             id="path64" /><path
             d="M 69.12,571.83 H 946.27"
             style="fill:none;stroke:#6b6b6b;stroke-width:0.27000001;stroke-linecap:butt;stroke-linejoin:round;stroke-miterlimit:10;stroke-dasharray:none;stroke-opacity:1"
             id="path66" /><path
             d="M 102.09,47.48 V 606.13"
             style="fill:none;stroke:#6b6b6b;stroke-width:0.27000001;stroke-linecap:butt;stroke-linejoin:round;stroke-miterlimit:10;stroke-dasharray:none;stroke-opacity:1"
             id="path68" /><path
             d="M 257.43,47.48 V 606.13"
             style="fill:none;stroke:#6b6b6b;stroke-width:0.27000001;stroke-linecap:butt;stroke-linejoin:round;stroke-miterlimit:10;stroke-dasharray:none;stroke-opacity:1"
             id="path70" /><path
             d="M 413.63,47.48 V 606.13"
             style="fill:none;stroke:#6b6b6b;stroke-width:0.27000001;stroke-linecap:butt;stroke-linejoin:round;stroke-miterlimit:10;stroke-dasharray:none;stroke-opacity:1"
             id="path72" /><path
             d="M 571.56,47.48 V 606.13"
             style="fill:none;stroke:#6b6b6b;stroke-width:0.27000001;stroke-linecap:butt;stroke-linejoin:round;stroke-miterlimit:10;stroke-dasharray:none;stroke-opacity:1"
             id="path74" /><path
             d="M 730.35,47.48 V 606.13"
             style="fill:none;stroke:#6b6b6b;stroke-width:0.27000001;stroke-linecap:butt;stroke-linejoin:round;stroke-miterlimit:10;stroke-dasharray:none;stroke-opacity:1"
             id="path76" /><path
             d="M 887.41,47.48 V 606.13"
             style="fill:none;stroke:#6b6b6b;stroke-width:0.27000001;stroke-linecap:butt;stroke-linejoin:round;stroke-miterlimit:10;stroke-dasharray:none;stroke-opacity:1"
             id="path78" /><path
             d="M 69.12,70.65 H 946.27"
             style="fill:none;stroke:#6b6b6b;stroke-width:0.52999997;stroke-linecap:butt;stroke-linejoin:round;stroke-miterlimit:10;stroke-dasharray:none;stroke-opacity:1"
             id="path80" /><path
             d="M 69.12,182.02 H 946.27"
             style="fill:none;stroke:#6b6b6b;stroke-width:0.52999997;stroke-linecap:butt;stroke-linejoin:round;stroke-miterlimit:10;stroke-dasharray:none;stroke-opacity:1"
             id="path82" /><path
             d="M 69.12,293.39 H 946.27"
             style="fill:none;stroke:#6b6b6b;stroke-width:0.52999997;stroke-linecap:butt;stroke-linejoin:round;stroke-miterlimit:10;stroke-dasharray:none;stroke-opacity:1"
             id="path84" /><path
             d="M 69.12,404.77 H 946.27"
             style="fill:none;stroke:#6b6b6b;stroke-width:0.52999997;stroke-linecap:butt;stroke-linejoin:round;stroke-miterlimit:10;stroke-dasharray:none;stroke-opacity:1"
             id="path86" /><path
             d="M 69.12,516.14 H 946.27"
             style="fill:none;stroke:#6b6b6b;stroke-width:0.52999997;stroke-linecap:butt;stroke-linejoin:round;stroke-miterlimit:10;stroke-dasharray:none;stroke-opacity:1"
             id="path88" /><path
             d="M 179.76,47.48 V 606.13"
             style="fill:none;stroke:#6b6b6b;stroke-width:0.52999997;stroke-linecap:butt;stroke-linejoin:round;stroke-miterlimit:10;stroke-dasharray:none;stroke-opacity:1"
             id="path90" /><path
             d="M 335.1,47.48 V 606.13"
             style="fill:none;stroke:#6b6b6b;stroke-width:0.52999997;stroke-linecap:butt;stroke-linejoin:round;stroke-miterlimit:10;stroke-dasharray:none;stroke-opacity:1"
             id="path92" /><path
             d="M 492.16,47.48 V 606.13"
             style="fill:none;stroke:#6b6b6b;stroke-width:0.52999997;stroke-linecap:butt;stroke-linejoin:round;stroke-miterlimit:10;stroke-dasharray:none;stroke-opacity:1"
             id="path94" /><path
             d="M 650.95,47.48 V 606.13"
             style="fill:none;stroke:#6b6b6b;stroke-width:0.52999997;stroke-linecap:butt;stroke-linejoin:round;stroke-miterlimit:10;stroke-dasharray:none;stroke-opacity:1"
             id="path96" /><path
             d="M 809.74,47.48 V 606.13"
             style="fill:none;stroke:#6b6b6b;stroke-width:0.52999997;stroke-linecap:butt;stroke-linejoin:round;stroke-miterlimit:10;stroke-dasharray:none;stroke-opacity:1"
             id="path98" /><path
             d="m 108.99,72.88 v 2.22 2.23 2.23 2.23 2.22 2.23 2.23 2.23 2.22 2.23 2.23 2.22 2.23 2.23 2.23 2.22 2.23 2.23 2.23 2.22 2.23 2.23 2.23 2.22 2.23 2.23 2.23 2.22 2.23 2.23 l 8.63,2.23 v 2.22 l 3.45,2.23 v 2.23 2.23 2.22 l 1.73,2.23 v 2.23 2.23 2.22 2.23 2.23 2.23 l 6.9,2.22 v 2.23 2.23 2.23 2.22 2.23 2.23 l 1.73,2.23 v 2.22 2.23 2.23 2.23 2.22 2.23 2.23 2.23 2.22 l 1.73,2.23 v 2.23 2.23 2.22 l 8.63,2.23 v 2.23 2.23 2.22 2.23 2.23 2.22 2.23 2.23 2.23 l 1.72,2.22 1.73,2.23 8.63,2.23 5.18,2.23 25.89,2.22 5.17,2.23 13.81,2.23 v 2.23 2.22 2.23 l 1.73,2.23 32.79,2.23 5.18,2.22 24.16,2.23 v 2.23 l 8.63,2.23 1.73,2.22 v 2.23 2.23 2.23 2.22 2.23 2.23 2.23 2.22 2.23 2.23 2.23 2.22 2.23 2.23 2.23 2.22 2.23 2.23 2.23 2.22 2.23 2.23 2.23 2.22 2.23 2.23 2.23 2.22 2.23 2.23 2.23 2.22 2.23 2.23 2.22 2.23 l 3.45,2.23 5.18,2.23 v 2.22 2.23 2.23 2.23 2.22 2.23 2.23 2.23 2.22 2.23 2.23 l 6.9,2.23 1.73,2.22 v 2.23 2.23 2.23 2.22 2.23 2.23 2.23 2.22 l 8.63,2.23 8.63,2.23 3.45,2.23 8.63,2.22 37.97,2.23 10.36,2.23 3.45,2.23 v 2.22 l 1.73,2.23 v 2.23 l 18.98,2.23 v 2.22 l 3.46,2.23 6.9,2.23 24.16,2.23 1.73,2.22 1.72,2.23 13.81,2.23 1.73,2.23 6.9,2.22 12.08,2.23 13.81,2.23 24.17,2.23 12.08,2.22 v 2.23 2.23 2.23 2.22 l 15.53,2.23 32.8,2.23 8.63,2.23 v 2.22 2.23 2.23 2.22 l 27.61,2.23 20.71,2.23 5.18,2.23 8.63,2.22 3.45,2.23 13.81,2.23 6.91,2.23 1.72,2.22 10.36,2.23 1.72,2.23 10.36,2.23 34.52,2.22 1.73,2.23 v 2.23 l 13.8,2.23 12.09,2.22 1.72,2.23 v 2.23 2.23 l 6.91,2.22 6.9,2.23 v 2.23 l 6.9,2.23 1.73,2.22 v 2.23 2.23 2.23 l 8.63,2.22 1.72,2.23 3.46,2.23 v 2.23 l 34.52,2.22 1.72,2.23 13.81,2.23 5.18,2.23 1.72,2.22 6.91,2.23 18.98,2.23 12.09,2.23 13.8,2.22 v 2.23 l 6.91,2.23 3.45,2.23"
             style="fill:none;stroke:#ffc0cb;stroke-width:8.53999996;stroke-linecap:butt;stroke-linejoin:round;stroke-miterlimit:1;stroke-dasharray:none;stroke-opacity:1"
             id="path100" /></g></g><g
         id="g132"><text
           transform="matrix(1,0,0,-1,53.07,63.47)"
           style="font-variant:normal;font-weight:normal;font-size:20px;font-family:Helvetica;-inkscape-font-specification:Helvetica;writing-mode:lr-tb;fill:#4d4d4d;fill-opacity:1;fill-rule:nonzero;stroke:none"
           id="text136"><tspan
             x="0"
             y="0"
             id="tspan134">0</tspan></text>
<text
           transform="matrix(1,0,0,-1,41.95,174.84)"
           style="font-variant:normal;font-weight:normal;font-size:20px;font-family:Helvetica;-inkscape-font-specification:Helvetica;writing-mode:lr-tb;fill:#4d4d4d;fill-opacity:1;fill-rule:nonzero;stroke:none"
           id="text140"><tspan
             x="0 11.12"
             y="0"
             id="tspan138">50</tspan></text>
<text
           transform="matrix(1,0,0,-1,30.83,286.21)"
           style="font-variant:normal;font-weight:normal;font-size:20px;font-family:Helvetica;-inkscape-font-specification:Helvetica;writing-mode:lr-tb;fill:#4d4d4d;fill-opacity:1;fill-rule:nonzero;stroke:none"
           id="text144"><tspan
             x="0 11.12 22.24"
             y="0"
             id="tspan142">100</tspan></text>
<text
           transform="matrix(1,0,0,-1,30.83,397.59)"
           style="font-variant:normal;font-weight:normal;font-size:20px;font-family:Helvetica;-inkscape-font-specification:Helvetica;writing-mode:lr-tb;fill:#4d4d4d;fill-opacity:1;fill-rule:nonzero;stroke:none"
           id="text148"><tspan
             x="0 11.12 22.24"
             y="0"
             id="tspan146">150</tspan></text>
<text
           transform="matrix(1,0,0,-1,30.83,508.96)"
           style="font-variant:normal;font-weight:normal;font-size:20px;font-family:Helvetica;-inkscape-font-specification:Helvetica;writing-mode:lr-tb;fill:#4d4d4d;fill-opacity:1;fill-rule:nonzero;stroke:none"
           id="text152"><tspan
             x="0 11.12 22.24"
             y="0"
             id="tspan150">200</tspan></text>
</g><g
         id="g156"><path
           d="m 66.38,70.65 h 2.74"
           style="fill:none;stroke:#333333;stroke-width:0.52999997;stroke-linecap:butt;stroke-linejoin:round;stroke-miterlimit:10;stroke-dasharray:none;stroke-opacity:1"
           id="path158" /><path
           d="m 66.38,182.02 h 2.74"
           style="fill:none;stroke:#333333;stroke-width:0.52999997;stroke-linecap:butt;stroke-linejoin:round;stroke-miterlimit:10;stroke-dasharray:none;stroke-opacity:1"
           id="path160" /><path
           d="m 66.38,293.39 h 2.74"
           style="fill:none;stroke:#333333;stroke-width:0.52999997;stroke-linecap:butt;stroke-linejoin:round;stroke-miterlimit:10;stroke-dasharray:none;stroke-opacity:1"
           id="path162" /><path
           d="m 66.38,404.77 h 2.74"
           style="fill:none;stroke:#333333;stroke-width:0.52999997;stroke-linecap:butt;stroke-linejoin:round;stroke-miterlimit:10;stroke-dasharray:none;stroke-opacity:1"
           id="path164" /><path
           d="m 66.38,516.14 h 2.74"
           style="fill:none;stroke:#333333;stroke-width:0.52999997;stroke-linecap:butt;stroke-linejoin:round;stroke-miterlimit:10;stroke-dasharray:none;stroke-opacity:1"
           id="path166" /></g><g
         id="g186"><path
           d="m 179.76,44.74 v 2.74"
           style="fill:none;stroke:#333333;stroke-width:0.52999997;stroke-linecap:butt;stroke-linejoin:round;stroke-miterlimit:10;stroke-dasharray:none;stroke-opacity:1"
           id="path188" /><path
           d="m 335.1,44.74 v 2.74"
           style="fill:none;stroke:#333333;stroke-width:0.52999997;stroke-linecap:butt;stroke-linejoin:round;stroke-miterlimit:10;stroke-dasharray:none;stroke-opacity:1"
           id="path190" /><path
           d="m 492.16,44.74 v 2.74"
           style="fill:none;stroke:#333333;stroke-width:0.52999997;stroke-linecap:butt;stroke-linejoin:round;stroke-miterlimit:10;stroke-dasharray:none;stroke-opacity:1"
           id="path192" /><path
           d="m 650.95,44.74 v 2.74"
           style="fill:none;stroke:#333333;stroke-width:0.52999997;stroke-linecap:butt;stroke-linejoin:round;stroke-miterlimit:10;stroke-dasharray:none;stroke-opacity:1"
           id="path194" /><path
           d="m 809.74,44.74 v 2.74"
           style="fill:none;stroke:#333333;stroke-width:0.52999997;stroke-linecap:butt;stroke-linejoin:round;stroke-miterlimit:10;stroke-dasharray:none;stroke-opacity:1"
           id="path196" /></g><g
         id="g200"><text
           transform="matrix(1,0,0,-1,138.82,28.19)"
           style="font-variant:normal;font-weight:normal;font-size:20px;font-family:Helvetica;-inkscape-font-specification:Helvetica;writing-mode:lr-tb;fill:#4d4d4d;fill-opacity:1;fill-rule:nonzero;stroke:none"
           id="text204"><tspan
             x="0 9.6000004 20.719999 31.84 37.400002 48.52 59.639999 70.760002"
             y="0"
             id="tspan202">Jan 2019</tspan></text>
<text
           transform="matrix(1,0,0,-1,294.52,28.19)"
           style="font-variant:normal;font-weight:normal;font-size:20px;font-family:Helvetica;-inkscape-font-specification:Helvetica;writing-mode:lr-tb;fill:#4d4d4d;fill-opacity:1;fill-rule:nonzero;stroke:none"
           id="text208"><tspan
             x="0 13.34 24.459999 31.120001 36.68 47.799999 58.919998 70.040001"
             y="0"
             id="tspan206">Apr 2019</tspan></text>
<text
           transform="matrix(1,0,0,-1,454.56,28.19)"
           style="font-variant:normal;font-weight:normal;font-size:20px;font-family:Helvetica;-inkscape-font-specification:Helvetica;writing-mode:lr-tb;fill:#4d4d4d;fill-opacity:1;fill-rule:nonzero;stroke:none"
           id="text212"><tspan
             x="0 9.6000004 20.719999 25.16 30.719999 41.84 52.959999 64.080002"
             y="0"
             id="tspan210">Jul 2019</tspan></text>
<text
           transform="matrix(1,0,0,-1,610.37,28.19)"
           style="font-variant:normal;font-weight:normal;font-size:20px;font-family:Helvetica;-inkscape-font-specification:Helvetica;writing-mode:lr-tb;fill:#4d4d4d;fill-opacity:1;fill-rule:nonzero;stroke:none"
           id="text216"><tspan
             x="0 15.56 25.559999 31.120001 36.68 47.799999 58.919998 70.040001"
             y="0"
             id="tspan214">Oct 2019</tspan></text>
<text
           transform="matrix(1,0,0,-1,768.8,28.19)"
           style="font-variant:normal;font-weight:normal;font-size:20px;font-family:Helvetica;-inkscape-font-specification:Helvetica;writing-mode:lr-tb;fill:#4d4d4d;fill-opacity:1;fill-rule:nonzero;stroke:none"
           id="text220"><tspan
             x="0 9.6000004 20.719999 31.84 37.400002 48.52 59.639999 70.760002"
             y="0"
             id="tspan218">Jan 2020</tspan></text>
</g><g
         transform="translate(-4.2607873,-1.0651968)"
         id="g236"><text
           transform="matrix(0,1,1,0,22.71,262.34)"
           style="font-style:normal;font-variant:normal;font-weight:bold;font-stretch:normal;font-size:24px;font-family:sans-serif;-inkscape-font-specification:'sans-serif Bold';writing-mode:lr-tb;fill:#000000;fill-opacity:1;fill-rule:nonzero;stroke:none"
           id="text240"><tspan
             style="font-size:23.10683632px"
             x="0 13.344 20.016001 34.68 48.023998 60.888 74.232002 87.335999 102.24 115.584"
             y="0"
             id="tspan238"># packages</tspan></text>
</g><g
         transform="matrix(1.1623855,0,0,1.1623855,-13.970171,-97.591756)"
         id="g252"><text
           transform="matrix(1,0,0,-1,69.12,615.34)"
           style="font-variant:normal;font-weight:bold;font-size:26px;font-family:Helvetica;-inkscape-font-specification:Helvetica-Bold;writing-mode:lr-tb;fill:#0000ff;fill-opacity:1;fill-rule:nonzero;stroke:none"
           id="text256"><tspan
             style="font-style:normal;font-variant:normal;font-weight:bold;font-stretch:normal;font-size:25.674263px;font-family:sans-serif;-inkscape-font-specification:'sans-serif Bold'"
             x="0 16.562 31.018 44.953999 59.41 73.606003 89.751999 104.208 111.436 127.322 143.20799 150.436 166.32201 180.778 196.664 211.12 218.34801 227.006 242.892 250.12 267.46201 286.23401 293.46201"
             y="0"
             id="tspan254">Package uploads to ERIC</tspan></text>
</g><path
         id="path4830"
         d="m 182.14874,467.43369 c 0,-138.35723 -1.0652,-177.88787 -1.0652,-177.88787"
         style="fill:none;fill-rule:evenodd;stroke:#ff7901;stroke-width:5.92785931;stroke-linecap:butt;stroke-linejoin:miter;stroke-miterlimit:4;stroke-dasharray:none;stroke-opacity:1;marker-end:url(#Arrow2Mend)" /><text
         transform="scale(1,-1)"
         id="text9556"
         y="-491.98688"
         x="108.6501"
         style="font-style:normal;font-variant:normal;font-weight:normal;font-stretch:normal;font-size:11.55341816px;line-height:12.03481102px;font-family:Impact;-inkscape-font-specification:Impact;text-align:start;letter-spacing:0px;word-spacing:0px;writing-mode:lr-tb;text-anchor:start;fill:#ff7901;fill-opacity:1;stroke:#ff7901;stroke-width:0.48139244px;stroke-linecap:butt;stroke-linejoin:miter;stroke-opacity:1"
         xml:space="preserve"><tspan
           style="font-style:normal;font-variant:normal;font-weight:normal;font-stretch:normal;font-size:25.674263px;font-family:Inconsolata;-inkscape-font-specification:Inconsolata;fill:#f6d289;fill-opacity:1;stroke:#ff7901;stroke-width:0.48139244px;stroke-opacity:1"
           y="-491.98688"
           x="108.6501"
           id="tspan9554">policy into effect</tspan></text>
<path
         id="path9585"
         d="m 211.2246,384.57393 c 643.13123,163.6169 643.13123,163.6169 643.13123,163.6169"
         style="fill:none;fill-rule:evenodd;stroke:#b1ff62;stroke-width:3.85113955;stroke-linecap:butt;stroke-linejoin:miter;stroke-miterlimit:4;stroke-dasharray:none;stroke-opacity:1" /><text
         transform="scale(1,-1)"
         id="text9589"
         y="-385.46719"
         x="367.49289"
         style="font-style:normal;font-variant:normal;font-weight:normal;font-stretch:normal;font-size:11.55341816px;line-height:12.03481102px;font-family:Impact;-inkscape-font-specification:Impact;text-align:start;letter-spacing:0px;word-spacing:0px;writing-mode:lr-tb;text-anchor:start;fill:#b1ff62;fill-opacity:1;stroke:none;stroke-width:0.48139244px;stroke-linecap:butt;stroke-linejoin:miter;stroke-opacity:1"
         xml:space="preserve"><tspan
           style="font-style:normal;font-variant:normal;font-weight:normal;font-stretch:normal;font-size:25.674263px;font-family:Inconsolata;-inkscape-font-specification:Inconsolata;fill:#b1ff62;fill-opacity:1;stroke:#b1ff62;stroke-width:0.48139244px;stroke-opacity:1"
           y="-385.46719"
           x="367.49289"
           id="tspan9587">~6 packages / month</tspan></text>
<path
         id="path4830-8"
         d="m 744.85944,315.47883 c 0,138.35723 -1.0652,177.88787 -1.0652,177.88787"
         style="fill:none;fill-rule:evenodd;stroke:#ff7901;stroke-width:5.92785978;stroke-linecap:butt;stroke-linejoin:miter;stroke-miterlimit:4;stroke-dasharray:none;stroke-opacity:1;marker-end:url(#Arrow2Mend-4)" /><text
         transform="scale(1,-1)"
         id="text9556-6"
         y="-287.48026"
         x="581.05316"
         style="font-style:normal;font-variant:normal;font-weight:normal;font-stretch:normal;font-size:11.55341816px;line-height:12.03481102px;font-family:Impact;-inkscape-font-specification:Impact;text-align:start;letter-spacing:0px;word-spacing:0px;writing-mode:lr-tb;text-anchor:start;fill:#ff7901;fill-opacity:1;stroke:#ff7901;stroke-width:0.48139244px;stroke-linecap:butt;stroke-linejoin:miter;stroke-opacity:1"
         xml:space="preserve"><tspan
           id="tspan10995"
           style="font-style:normal;font-variant:normal;font-weight:normal;font-stretch:normal;font-size:25.674263px;font-family:Inconsolata;-inkscape-font-specification:Inconsolata;fill:#f6d289;fill-opacity:1;stroke:#ff7901;stroke-width:0.48139244px;stroke-opacity:1"
           y="-287.48026"
           x="581.05316">opendata.eawag.ch online</tspan></text>
<text
         transform="scale(1,-1)"
         id="text9589-8"
         y="-351.44339"
         x="354.65576"
         style="font-style:normal;font-variant:normal;font-weight:normal;font-stretch:normal;font-size:11.55341816px;line-height:12.03481102px;font-family:Impact;-inkscape-font-specification:Impact;text-align:start;letter-spacing:0px;word-spacing:0px;writing-mode:lr-tb;text-anchor:start;fill:#b1ff62;fill-opacity:1;stroke:none;stroke-width:0.48139244px;stroke-linecap:butt;stroke-linejoin:miter;stroke-opacity:1"
         xml:space="preserve"><tspan
           style="font-style:normal;font-variant:normal;font-weight:normal;font-stretch:normal;font-size:25.674263px;font-family:Inconsolata;-inkscape-font-specification:Inconsolata;fill:#ff989e;fill-opacity:1;stroke:#f2786c;stroke-width:0.48139244px;stroke-opacity:1"
           y="-351.44339"
           x="354.65576"
           id="tspan9587-9">~40 articles / month</tspan></text>
</g><g
       id="g258" /><g
       id="g260" /><g
       id="g262" /><g
       id="g264" /></g></svg>